<svg width="86" height="86" viewBox="0 0 86 86" fill="none" xmlns="http://www.w3.org/2000/svg">
<path d="M0 43C0 19.2518 19.2518 0 43 0C66.7482 0 86 19.2518 86 43C86 66.7482 66.7482 86 43 86C19.2518 86 0 66.7482 0 43Z" fill="#CBEF6A"/>
<path d="M48.8437 32.5802C49.2847 30.2569 48.0139 28.0661 46.0053 27.6868C43.9968 27.3075 42.0111 28.8834 41.5701 31.2067C41.1292 33.53 42.4 35.7208 44.4085 36.1001C46.4171 36.4793 48.4028 34.9034 48.8437 32.5802Z" fill="#0c0c04"/>
<path d="M28.653 32.5433C29.0714 30.3391 27.8669 28.2607 25.9628 27.9012C24.0586 27.5416 22.1759 29.037 21.7575 31.2413C21.3392 33.4455 22.5436 35.5239 24.4477 35.8835C26.3519 36.243 28.2346 34.7476 28.653 32.5433Z" fill="#0c0c04"/>
<path d="M58.77 48.5732C52.9293 58.4245 37.8169 61.134 28.907 53.9284" stroke="#0c0c04" stroke-width="4.75" stroke-linecap="round" stroke-linejoin="round"/>
<path d="M57.8491 43.0627C58.8982 47.7599 61.4314 52.1189 64.9999 55.3585" stroke="#0c0c04" stroke-width="4.75" stroke-linecap="round" stroke-linejoin="round"/>
</svg>
