<svg width="829" height="425" viewBox="0 0 829 425" fill="none" xmlns="http://www.w3.org/2000/svg">
<g clip-path="url(#clip0_311_2)">
<path d="M646.05 350.37C641.55 351.1 636.87 349.81 632.96 347.46C629.05 345.11 625.83 341.76 622.99 338.19C612.61 325.13 605.11 307.43 606.51 290.59C607.27 281.49 609.69 272.62 611.34 263.64C612.99 254.66 613.86 245.3 611.54 236.47C624.72 240.48 636.45 249.11 644.19 260.51C653.16 273.71 655.44 290.34 656.08 305.93C656.72 321.52 652.41 337.12 643.01 349.97" fill="#9AB75C"/>
<path d="M627.79 269.32C639.52 293.42 643.8 322.19 639.53 348.66C638.62 335.23 637.62 321.97 635.61 308.7C633.71 295.42 630.82 282.44 627.79 269.32Z" fill="#FFFBF0"/>
<path d="M709.6 247.12C717.18 247.12 724.9 252.15 726.28 259.58C728.01 268.91 722.59 279.08 713.88 282.84C715.09 283.5 716.34 283.66 717.63 283.66C718.92 283.66 720.16 283.51 721.47 283.51C721.94 283.51 722.42 283.53 722.89 283.58C726.62 284 731.11 286.59 731.63 290.77C731.73 291.6 731.65 292.44 731.45 293.25C727.92 307.95 717.07 320.71 703.12 326.56C704.24 326.26 705.47 326.01 706.62 325.81C706.99 325.75 707.36 325.72 707.73 325.72C710.6 325.72 713.26 327.61 713.91 330.47C714.02 330.97 714.07 331.48 714.04 332.02C713.26 333.77 712.48 335.53 711.11 336.95C709.7 338.25 698.96 348.12 684.56 352.77C677.42 355.07 669.55 358.89 661.91 358.89C659.45 358.89 657.01 358.49 654.63 357.53C649.7 355.53 647.47 352.16 643.63 348.95C638 344.26 637.02 337.32 634.01 329.71C631.7 323.88 630.72 313.9 631.5 307.67C632.28 301.44 635.91 295.29 641.7 292.89C642.85 292.41 644.11 292.1 645.35 292.1C646.19 292.1 647.02 292.25 647.79 292.59C648.83 293.05 649.69 293.94 650.14 294.97C650.14 295.88 650.18 296.79 650.25 297.7C650.61 296.81 650.52 295.84 650.14 294.97C650.01 280.45 657.17 265.98 668.9 257.4C672.06 255.09 675.76 253.13 679.64 253.13C679.96 253.13 680.28 253.14 680.6 253.17C684.82 253.53 688.96 257.18 688.5 261.39C692.54 254.23 699.45 248.25 707.61 247.26C708.27 247.18 708.94 247.14 709.6 247.14M709.6 244.69C708.83 244.69 708.07 244.74 707.32 244.83C700.6 245.64 694.16 249.61 689.37 255.71C689.19 255.44 688.99 255.18 688.78 254.92C686.83 252.55 683.85 250.98 680.81 250.72C680.43 250.69 680.04 250.67 679.65 250.67C675.82 250.67 671.84 252.22 667.48 255.41C656.48 263.46 649.27 276.4 647.95 290.04C647.14 289.79 646.27 289.66 645.36 289.66C643.89 289.66 642.35 289.99 640.78 290.64C634.64 293.19 630.05 299.75 629.1 307.36C628.24 314.28 629.43 324.7 631.76 330.59C632.49 332.44 633.11 334.27 633.71 336.04C635.58 341.6 637.35 346.84 642.09 350.8C643.18 351.71 644.17 352.67 645.12 353.59C647.45 355.85 649.86 358.19 653.74 359.76C656.29 360.8 658.97 361.3 661.93 361.3C668.09 361.3 674.11 359.1 679.93 356.97C681.81 356.28 683.58 355.63 685.32 355.07C699.15 350.61 709.82 341.44 712.77 338.73L712.83 338.68L712.88 338.63C714.54 336.9 715.46 334.83 716.27 333.01L716.45 332.6L716.47 332.15C716.51 331.4 716.45 330.68 716.28 329.95C715.75 327.6 714.2 325.64 712.15 324.48C722.82 317.42 730.82 306.29 733.82 293.83C734.1 292.66 734.18 291.54 734.05 290.49C733.38 285.11 728.08 281.74 723.18 281.19C722.65 281.13 722.1 281.1 721.49 281.1C721.31 281.1 721.13 281.1 720.95 281.1C726.91 275.66 730.15 267.1 728.67 259.14C727.17 251.04 718.79 244.7 709.61 244.7L709.6 244.69Z" fill="#FFFBF0"/>
<path d="M727.27 335.42C729.67 334.09 732.64 334.58 735.27 335.33C742.77 337.47 749.74 341.43 755.42 346.79C757.62 348.86 759.29 351.49 760.23 354.37C754.58 351.57 750.93 345.49 750.26 339.22C749.58 332.95 751.63 326.58 755.09 321.31C757.78 330.32 755.88 339.99 753.98 349.19C754.47 341.96 759.58 335.25 766.42 332.86C762.36 339.46 758.67 346.27 755.35 353.27C754.61 350.01 757.18 346.71 760.33 345.58C763.47 344.46 766.96 345.02 770.18 345.9C773.4 346.78 776.59 347.98 779.92 348.1C775.92 349.82 771.87 351.55 767.59 352.35C760.73 353.63 754.47 351.77 748.67 348.28C741.54 343.99 734.41 339.71 727.28 335.42H727.27Z" fill="#9AB75C"/>
<path d="M274.89 295.98C272.75 297.27 270.55 298.33 268.28 299.1C268.37 299.71 268.35 300.34 268.21 300.96C267.96 300.43 267.7 299.9 267.44 299.37C267.32 299.41 267.21 299.44 267.09 299.47C265.96 300.51 264.7 301.39 263.32 302.07C263.53 301.42 263.78 300.78 264.08 300.16C264.63 298.95 265.32 297.79 266.14 296.73C265.69 295.82 265.23 294.92 264.76 294.03C262.38 289.45 259.84 284.95 257.14 280.55C262.53 282.44 266.85 287.02 268.67 292.41C267.18 284.59 266.2 276.57 268.46 269C271.93 274.28 273.97 280.64 273.29 286.92C273.14 288.26 272.87 289.58 272.45 290.87C277.19 287.33 282.58 284.66 288.27 283.04C290.91 282.28 293.88 281.79 296.28 283.12C289.15 287.41 282.02 291.69 274.89 295.98Z" fill="#9AB75C"/>
<path d="M650.26 297.67C649.15 282.26 656.44 266.49 668.91 257.37C672.33 254.87 676.38 252.78 680.6 253.14C684.82 253.5 688.96 257.15 688.5 261.36C692.54 254.2 699.45 248.22 707.61 247.23C715.77 246.24 724.78 251.49 726.29 259.57C728.02 268.9 722.6 279.07 713.89 282.83C716.69 284.36 719.74 283.22 722.91 283.57C726.64 283.99 731.13 286.58 731.65 290.76C731.75 291.59 731.67 292.43 731.47 293.24C727.93 307.94 717.09 320.7 703.14 326.55C704.26 326.25 705.49 326 706.64 325.8C709.91 325.24 713.2 327.23 713.93 330.46C714.04 330.96 714.09 331.47 714.06 332.01C713.28 333.76 712.5 335.52 711.13 336.94C709.72 338.24 698.98 348.11 684.58 352.76C675.14 355.81 664.44 361.49 654.65 357.51C649.72 355.51 647.49 352.14 643.65 348.93C638.02 344.24 637.04 337.3 634.03 329.69C631.72 323.86 630.74 313.88 631.52 307.66C632.3 301.43 635.93 295.28 641.72 292.88C643.65 292.08 645.9 291.73 647.81 292.57C649.72 293.41 651.05 295.74 650.27 297.67H650.26Z" fill="#9AB75C"/>
<path d="M238.61 303.66C241.23 302.91 243.43 301.02 244.95 298.75C246.47 296.48 247.36 293.85 247.98 291.19C250.27 281.47 249.81 269.98 244.76 261.22C242.03 256.49 238.46 252.3 235.27 247.86C232.08 243.42 229.23 238.58 228.23 233.2C222.12 238.73 217.97 246.4 216.69 254.54C215.2 263.97 218.21 273.55 221.84 282.16C225.52 290.89 231.78 298.11 240.15 302.66" fill="#9AB75C"/>
<path d="M227.82 255.13C230.99 270.91 235.62 286.17 241.71 301.07C232.6 287.7 227.66 271.31 227.82 255.13Z" fill="#FFFBF0"/>
<path d="M199.78 246.1C202.73 250.7 207.21 254.1 211.84 257.01C216.47 259.92 221.35 262.44 225.67 265.79C233.66 271.99 238.43 282.45 239.98 292.32C240.41 295.02 240.58 297.79 240.03 300.47C239.73 301.94 238.95 305.26 237.37 305.81C236.98 305.95 236.56 306 236.13 306C234.46 306 232.52 305.17 231.1 304.79C228.72 304.15 226.39 303.29 224.17 302.23C219.79 300.14 215.8 297.27 212.37 293.85C205.76 287.26 199.35 279.52 197.17 270.23C195.28 262.2 196.22 253.54 199.79 246.11M199.48 241.14L197.6 245.05C193.77 253.03 192.78 262.16 194.81 270.77C197.26 281.16 204.57 289.47 210.66 295.55C214.36 299.24 218.56 302.22 223.13 304.4C225.49 305.53 227.96 306.44 230.48 307.11C230.81 307.2 231.22 307.33 231.64 307.47C232.93 307.89 234.54 308.41 236.13 308.41C236.86 308.41 237.55 308.3 238.17 308.08C240.21 307.37 241.55 305.1 242.4 300.94C242.94 298.32 242.93 295.46 242.37 291.93C240.54 280.33 234.85 269.84 227.15 263.87C224.08 261.49 220.74 259.51 217.51 257.6C216.06 256.74 214.56 255.86 213.13 254.95C209.4 252.61 204.75 249.33 201.82 244.78L199.48 241.13V241.14Z" fill="#FFFBF0"/>
<path d="M236.02 307.411C238.17 305.721 239.49 303.141 240.03 300.471C240.58 297.801 240.41 295.021 239.98 292.321C238.43 282.461 233.66 271.991 225.67 265.791C221.35 262.441 216.46 259.921 211.84 257.011C207.21 254.101 202.74 250.701 199.78 246.101C196.21 253.531 195.27 262.201 197.16 270.221C199.35 279.511 205.75 287.251 212.36 293.841C218.97 300.431 227.59 304.851 237.06 305.901" fill="#9AB75C"/>
<path d="M820.654 384.101C822.687 352.925 641.741 315.747 416.5 301.063C191.259 286.379 7.01818 299.749 4.98569 330.925C2.9532 362.102 183.899 399.279 409.14 413.963C634.38 428.647 818.622 415.278 820.654 384.101Z" fill="#9AB75C"/>
<path d="M207.69 266.56C216.59 279.97 226.64 292.35 237.91 303.84C224.42 294.9 213.66 281.6 207.69 266.56Z" fill="#FFFBF0"/>
<path d="M698.07 275.83C680.98 295.77 668.63 318.13 660.79 343.19C662.88 317.06 677.05 291.5 698.07 275.83Z" fill="#FFFBF0"/>
<path d="M491.06 196.49C513.52 195.25 536.02 186.21 552.25 170.47C567.76 155.43 574.62 134.03 577.1 113.29C577.51 109.85 577.71 106.08 575.79 103.2C573.17 99.2802 569.26 100.71 565.96 102.15C565.96 98.6802 564.75 94.8002 561 93.4502C557.64 92.2402 553.51 93.8902 551.91 97.0802C551.87 92.4602 551.65 87.8002 551.81 83.1902C551.92 80.1402 552.52 76.0702 549.56 74.0902C547.08 72.4302 543.43 72.9202 540.9 74.2202C538.6 75.4002 537.27 77.7602 536.21 80.0302C535.03 82.5502 534.27 85.2402 533.72 87.9602C532.59 93.6502 532.39 99.4602 531.64 105.2C531.36 107.32 531.01 109.44 530.5 111.52C525.29 132.53 503.57 149.21 482.25 145.49L455.33 141.07L442.77 186.82L472.18 203.98L491.07 196.49H491.06Z" fill="#FFFBF0"/>
<path d="M234.03 331.91C233.88 332.33 233.96 333.27 234.38 333.09L234.68 331.49L234.03 331.91Z" fill="#2B2B24"/>
<path d="M236.85 334.88C237.34 334.11 237.91 332.76 237.59 331.29C237.1 332.81 236.98 332.18 236.46 334C236.04 334.19 235.73 333.49 235.8 332.9C235.65 333.31 235.15 332.54 234.92 333.55C235.47 334.79 236.16 334.84 236.88 333.82C237.04 334.17 236.88 334.59 236.85 334.88Z" fill="#2B2B24"/>
<path d="M277.87 337.11L277.61 336.94C277.68 337.03 277.77 337.08 277.87 337.11Z" fill="#2B2B24"/>
<path d="M303.29 337.65C303.1 337.68 303.02 337.81 303.01 337.93C303.19 337.84 303.34 337.76 303.29 337.65Z" fill="#2B2B24"/>
<path d="M307.63 339C307.54 338.96 307.46 338.94 307.37 338.92C307.47 339.04 307.57 339.1 307.63 339Z" fill="#2B2B24"/>
<path d="M277.87 337.11L278.55 337.55C278.6 337.09 278.2 337.21 277.87 337.11Z" fill="#2B2B24"/>
<path d="M242.51 331.1C242.37 331.17 242.25 331.32 242.14 331.51C242.26 331.44 242.37 331.39 242.49 331.35C242.49 331.27 242.5 331.2 242.51 331.1Z" fill="#2B2B24"/>
<path d="M266.67 338.37H266.46C266.4 338.54 266.34 338.74 266.29 338.97L266.67 338.37Z" fill="#2B2B24"/>
<path d="M258.07 338.69C258.26 338.74 258.33 337.47 258.41 336.91C258.3 337.44 258.16 337.69 257.99 337.79C257.99 338.03 258.01 338.32 258.08 338.69H258.07Z" fill="#2B2B24"/>
<path d="M244.43 336.49L244.19 336.68C244.25 336.62 244.36 336.57 244.43 336.49Z" fill="#2B2B24"/>
<path d="M272.82 338.58C272.83 338.76 272.87 338.92 272.9 339.01C272.9 338.86 272.87 338.71 272.82 338.58Z" fill="#2B2B24"/>
<path d="M513.32 334.52V334.54C513.37 334.53 513.39 334.52 513.32 334.52Z" fill="#2B2B24"/>
<path d="M523.29 335.15H523.15C523.15 335.15 523.12 335.19 523.12 335.2L523.29 335.15Z" fill="#2B2B24"/>
<path d="M315.57 340.22C315.57 340.22 315.55 340.21 315.53 340.2C315.32 340.32 315.44 340.3 315.57 340.22Z" fill="#2B2B24"/>
<path d="M388.47 338.1C387.64 337.47 389.81 337.26 388.57 336.56C388.69 336.84 387.44 337.7 388.47 338.1Z" fill="#2B2B24"/>
<path d="M242.73 331.27C242.85 331.26 242.96 331.25 243.08 331.27C242.92 331.23 242.81 331.23 242.73 331.27Z" fill="#2B2B24"/>
<path d="M388.57 336.56L388.44 336.49C388.49 336.52 388.52 336.54 388.57 336.56Z" fill="#2B2B24"/>
<path d="M333.87 339.25C333.83 339.08 333.76 338.95 333.68 338.83C333.68 338.93 333.73 339.05 333.87 339.25Z" fill="#2B2B24"/>
<path d="M320.23 338.05L320.57 338.18C320.44 338.09 320.33 338.06 320.23 338.05Z" fill="#2B2B24"/>
<path d="M340.94 337.8C341.12 337.87 341.19 338 341.44 337.87C341.42 337.82 341.39 337.79 341.36 337.76C341.27 337.89 341.15 337.95 340.94 337.8Z" fill="#2B2B24"/>
<path d="M348.31 337.7C348.27 337.63 348.22 337.58 348.17 337.52C348.1 337.54 348.01 337.55 347.94 337.57L348.31 337.7Z" fill="#2B2B24"/>
<path d="M490.93 334.12C491.09 334.19 491.19 334.27 491.27 334.34C491.16 334.17 492.24 334.13 490.93 334.12Z" fill="#2B2B24"/>
<path d="M242.51 331.85C242.55 331.51 242.62 331.35 242.73 331.28C242.65 331.29 242.56 331.32 242.49 331.35C242.47 331.55 242.46 331.74 242.52 331.85H242.51Z" fill="#2B2B24"/>
<path d="M341.24 330.46L342.41 330.62C342.08 330.52 341.66 330.47 341.24 330.46Z" fill="#2B2B24"/>
<path d="M438.08 333.14L438.35 333.09C438.25 333.08 438.15 333.09 438.08 333.14Z" fill="#2B2B24"/>
<path d="M345.89 330.57C346.1 330.9 346.32 331.09 346.55 331.21C346.6 331.14 346.65 331.08 346.69 330.98L345.9 330.57H345.89Z" fill="#2B2B24"/>
<path d="M498.98 333.99C497.86 333.95 498.46 334.24 498.22 334.39C496.89 334.44 497.6 334.18 497.15 334.03C496.32 334.08 495.68 334.33 495.06 334.31C495.01 334.26 494.89 334.24 495.03 334.19C494.15 334.41 492.42 334.15 491.4 334.44C491.32 334.41 491.29 334.38 491.27 334.36C491.44 334.52 491.46 334.68 491.43 334.79C490.93 334.79 490.5 334.98 490.31 334.77C490.62 334.77 490.64 334.7 490.79 334.63L490.27 334.71C489.8 334.41 490.99 334.61 490.99 334.4C489.97 334.48 488.78 334.72 488 334.63C487.84 334.32 489.83 334.55 488.79 334.27L490 334.4C489.07 333.92 490.74 334.45 489.89 333.93C488.3 333.8 488.11 334.04 486.52 333.92C486.16 334.09 486.64 334.18 486.28 334.35C484.02 334.65 484.5 333.5 482.84 333.9C482.41 334.11 482.24 334.55 481.06 334.3L481.46 333.92C479.92 333.85 480.58 334.47 478.96 334.18C479.25 334.02 480.17 334.07 479.94 334.02C478.89 333.68 479.2 334.23 478.39 334.22L478.22 333.85C476.58 333.87 474.77 334.11 472.95 334.16C473.05 334.04 473.36 333.93 472.94 333.8C470.65 333.96 468.04 333.67 465.83 333.35L464.98 333.71C464.78 333.71 464.62 333.53 464.83 333.46C463.97 333.3 464.79 333.7 464.37 333.84C463.88 333.86 463.72 333.61 464.03 333.5C462.51 333.79 459.69 334.15 458.09 333.69L458.4 333.57C457.15 333.37 456.99 334.4 455.83 334L456.05 333.93C453.34 333.7 450.34 334.07 448.27 333.35C447.88 334.01 445.59 333 445.41 333.94C443.86 333.44 444.31 333.28 442.13 332.91C441.55 332.85 441.26 333.51 440.54 333.6L440.52 333.08L439.54 333.61L439.02 332.97L438.34 333.09C438.61 333.13 438.91 333.34 438.87 333.49C437.82 333.72 436.3 333.07 436.27 332.79L433.78 333.21C433.84 332.99 434.25 332.92 434.58 332.78C433.25 333.32 434.34 332.19 433.12 332.68C433.28 332.81 433.03 333.01 433 333.13C432.39 332.78 431.01 332.74 429.98 332.87L430.18 332.48C428.33 332.33 426.28 332.58 424.2 332.53C424.95 332.74 424.77 333.46 424.16 333.52L423.92 332.87C423.53 333.26 424.56 333.12 423.75 333.6C422.97 333.52 423.23 332.86 423.67 332.66L422.73 332.87C422.67 332.67 422.9 332.58 422.95 332.33C422.56 332.73 421.32 331.63 420.76 332.33L420.71 332.13C418.63 332.07 417.69 332.28 416 332.28C415.97 332.87 415.31 332.73 414.8 333.2C413.56 332.99 412.18 332.49 410.68 332.51C409.63 332.8 410.37 333.03 409.9 333.39C409.82 332.83 408.33 332.85 409.1 332.46C407.3 332.52 406.8 332.53 404.53 332.97C404.78 333.21 405.05 333.32 404.91 333.52C404.5 333.61 403.97 333.26 404.03 332.98L404.14 332.92C401.59 333.79 398.25 331.05 396.22 332.28L396.33 332.22L394.22 332.86C393.25 332.74 394.8 332.4 394.08 331.99C391.81 333.01 390.49 331.76 388.62 332.45C387.17 330.48 383.48 332.49 381.52 331.19L381.63 331.67C381.12 332.12 381.02 331.39 380.65 331.27C380.7 331.64 381.2 331.71 380.88 331.96C376.6 332.47 372.04 331.09 367.65 330.49C366.04 330.31 366.74 333.14 364.71 331.87L365.28 330.92C362.04 332.02 358.66 330.72 355.48 331.68C355.67 331.45 355.67 331.14 355.98 331.15C355.31 330.4 353.5 331.06 353.49 331.67C353 331.59 353.38 331.12 353.07 330.8C352.4 330.34 351.38 331.72 351.03 330.97C350.97 330.85 351.22 330.73 351.34 330.67C350.9 331.03 349.3 330.53 349.72 331.42C348.53 330.98 347.44 331.77 346.49 331.23C345.87 332.22 344.45 330.71 344.26 332.13C344.35 330.66 342.17 330.89 341.42 331.59C341.67 331.14 340.77 331.11 341.06 330.49C340.2 330.49 339.41 330.75 339.56 331.53C337.98 329.68 336.38 332.95 335.49 330.58C332.94 331.35 330.58 331.89 328.28 332.23C328.36 330.65 330.82 332.11 330.72 330.46C328.54 331.06 327.29 332.41 325.13 331.99C324.57 331.76 325.45 331.3 325.64 331.03C323.46 331.66 321.43 330.81 319.5 331.67C319.5 331.52 319.71 331.35 319.91 331.23C319.53 331.28 319.02 330.97 319.07 331.72L319.44 331.52C320.05 332.61 317.93 333.78 317.86 334.36C318.51 332.21 315.95 333.8 316.98 331.07C316.73 331.21 316.41 331.56 316.47 332.07C316.1 331.92 315.98 331.62 316.36 331.05C314.99 331.44 315.48 332.26 314.24 332.23C314.24 331.86 314.49 331.72 314.62 331.29C313.99 332 313.36 332.72 312.32 332.39C312.38 332.17 312.26 331.87 312.57 331.88C310.77 331.96 309.51 333.8 307.54 333.07C308.12 331.42 306.87 332.52 306.77 331.08L305.71 331.49L306.14 332.19C305.21 332.15 304.39 333.2 303.59 332.72L304.28 332.13L302.54 332.39L303.52 332.95C302.58 333.69 303.62 334.79 302.38 334.38C302.63 334.23 301.45 334.36 300.97 333.49C300.51 333.95 300.04 334.44 299.35 334.07C299.17 333.6 299.49 332.44 299.38 332.12C298.93 333.35 297.21 332.44 296.63 333.76C296.82 333.45 296.83 332.67 296.77 332.51L296.39 333.52C295.96 333.19 295.9 333.03 295.97 332.41C294.68 332.21 296.38 334.31 294.85 333.48C294.97 333.4 294.91 333.24 295.16 333.09C293.62 332.65 292.18 333.72 290.76 333.2C290.34 331.66 292 332.84 291.52 331.54C289.48 331.78 287.29 333.34 285.31 332.97L285.68 333.15C285.41 335.36 284.21 332.05 283.21 333.08C283.45 332.92 283.53 331.85 283.46 332.1C282.11 331.73 280.69 332.62 278.64 333.32L278.89 332.74C278.09 332.22 276.79 332.42 275.93 332.15C275.67 332.73 275.18 332.63 275.48 333.49C272.82 330.11 270.41 335.28 268.05 332.43C268.33 332.43 268.72 331.91 268.5 331.91L266.49 332.45C266.65 333.47 266.75 333.07 267.18 333.87C266.93 334.47 266.36 334.94 265.86 334.94C266.76 334.26 265.86 333.29 265.46 332.72C265.53 333.04 265.39 333.38 265.42 333.7C264.37 331.87 265.24 335.77 263.81 334.53L263.89 333.99C263.35 334.26 262.86 334.98 262.28 334.83C262.04 333.63 262.85 334.27 262.89 333.29C262.08 333.35 261.29 335.56 260.55 334.36C260.89 334.03 261.39 334.02 261.74 333.69C260.94 332.27 260.85 332.63 260.25 332.4L260.31 332.43L258.93 331.77L259.28 332.16C258.26 335.32 257.21 332.72 255.84 334.8C257.17 332.83 256.06 333.66 256.16 332.27C255.81 331.88 255.28 331.45 255.43 331.06C254.78 332.18 254.35 330.16 253.44 331.8C253.4 331.35 252.75 331.75 252.89 330.62C252.05 330.96 253.09 331.41 253.02 331.97C251.72 333.5 249.97 330.06 248.11 332.17C246.5 333.04 246.2 334.58 244.71 335.35C244.21 334.61 245.12 333.68 245.12 333.68C244.31 333 243.7 333.12 242.93 333.64C243.09 333.24 242.93 332.9 242.69 332.38C242.08 332.5 242.28 334.06 241.47 333.38C241.61 332.86 241.79 332.04 242.08 331.52C241.36 331.94 240.64 332.8 239.89 333.22C239.69 332.41 240.34 331.99 240.61 331.46C239.77 331.82 238.43 332.18 238.17 333.47L238.71 333.93C238.4 333.99 238.55 332.82 238.78 332.59C239.5 331.59 239.82 333.04 239.86 333.51L239.33 333.81C239.88 336.54 241.47 333.37 242.55 333.54L242.1 335.51L243.2 333.87C243.43 334.38 243.6 335.48 243.06 335.78C243.83 336.75 243.74 335.08 244.4 336.16C244.47 336.33 244.44 336.42 244.37 336.5L245.12 335.91C244.97 336.32 245.25 337.29 244.78 337.01C246.13 338.13 246.96 335.53 247.47 337.01L247.36 337.13C249.23 336.46 247.54 335.7 248.95 334.03L249.9 337.54L250.08 336.12C250.27 336.17 250.66 336.28 250.59 336.84C251.31 335.87 250.47 336.22 250.89 335.31C251.82 336.6 253.46 334.71 253.67 336.95C254 335.88 252.78 336.13 253.77 335.38C254.05 337.79 254.92 334.97 255.77 336.07C255.51 337.31 254.7 336.66 255.55 337.76C256.06 335.67 257.21 338.21 257.92 337.8C257.95 336.15 259.48 337.1 260.68 336.55C260.6 337.1 262.95 337.44 264.07 338.01L264.04 338.28C264.26 336.64 265.41 336.94 266.25 336.6C266.22 337.58 266.07 337.96 265.61 338.4L266.4 338.38C266.59 337.86 266.83 337.58 267.35 337.39L267.15 338.6C268.2 338.52 269.27 337.16 270.62 337.95C270.7 336.83 269.54 334.83 270.97 334.09C271.02 334.69 271.08 335.73 270.7 335.98C270.82 335.9 271.14 335.48 271.38 335.73L270.81 336.75C271.43 337.19 271.13 335.9 271.63 335.99C271.63 336.85 271.99 336.6 271.92 337.28C271.79 337.36 271.49 336.93 271.3 337.27C271.86 337.42 272.53 337.92 272.75 338.57C272.7 338.08 272.75 337.42 273.16 337.3C274.21 337.23 273.52 338.33 274.13 338.76C274.38 338.17 275.06 338.77 275.07 337.5C275.38 337.5 275.43 338.1 275.55 338.44C276.09 337.87 278.09 338.26 277.48 336.92L277.34 336.83C277.34 336.83 277.4 336.8 277.43 336.77C279.22 335.51 281.14 337.46 282.91 336.91V337.33C283.96 336.85 285.26 337.03 286.02 336.15C286.33 336.15 286.76 336.89 286.62 337.38C287.43 337.07 287.52 336.61 288.69 337.27C287.88 337.99 288.97 337.9 287.86 337.8C288.91 338.14 289.15 338.79 290.28 337.67C289.9 338.71 291.07 338.96 291.57 338.65L290.83 337.92C291.39 337.76 291.88 337.85 292.38 337.93L292.11 339.29C294.26 340.88 295.99 336.47 297.62 339.16C298.19 338.23 296.45 338.52 296.96 337.43C297.95 337.6 298.98 339.48 299.29 339.48C300.64 340.18 300.55 337.54 301.97 338.03C301.79 337.57 301.62 336.33 302.68 335.89C303.67 336.06 303.9 337.82 303.27 338.2C303.03 338.24 302.92 338.1 302.93 337.94C302.61 338.11 302.19 338.32 302.58 338.81L302.71 338.34C303.2 338.81 304.56 338.74 304.24 339.5C304.99 339.05 304.56 338.74 304.01 338.51C305.28 339.16 305.99 338.51 307.3 338.93C307.09 338.68 306.9 338.15 307.11 338.15C309.03 338.69 307.95 337.28 309.25 337.07C309.99 337.75 308.99 338.72 310.29 338.12C311.09 338.57 310.46 339.31 310.14 339.68C311.33 338.79 312.36 340.21 313.04 340.35L312.41 340.72C312.79 340.5 313.09 340.5 313.4 340.49L313.04 339.61C313.41 339.76 313.72 339.76 313.71 340.13C314.09 339.54 313.42 338.66 314.17 337.85C314.66 338.29 315.66 337.35 315.83 338.52C314.29 338.15 316 339.69 314.69 339.9C314.94 339.76 315.25 339.76 315.62 339.9C315.68 340.03 315.57 340.14 315.47 340.21C316.95 341.22 316.15 338.88 317.68 338.88C317.49 339.54 318.03 340.11 318.28 339.97C317.66 339.97 317.99 338.89 318.55 338.38C319.53 338.87 319.62 337.99 320.13 338.04L319.54 337.81C319.74 337.16 320.23 337.24 320.91 337.03C320.97 337.53 320.29 337.38 320.53 337.6C321.29 336.46 322.25 338.75 323.31 337.98C323.8 338.4 323.36 339.18 323.79 339.46C324.98 338.62 325.08 340.3 326.32 339.6C325.96 338.76 325.9 338.97 326.78 338.13L324.73 338.76L326.05 337.51C325.43 337.51 324.74 338.06 324.37 337.92C325 337.22 324.93 337.43 324.64 336.73C325.49 338 326.32 335.98 327.3 336.83L327.27 338.91C328.74 339.81 329.89 337.8 331.8 338.3L331.19 337.95C331.45 337.13 332.37 337.82 332.99 337.49C332.93 338.17 333.32 338.41 333.58 338.83C333.55 338.33 334.98 338.85 335.15 337.51L336 338.38C337.54 338.71 337.76 336.46 339.25 336.68C338.8 337.4 339.48 337.86 338.48 338.39C338.98 338.39 339.42 338.5 339.43 338.05C339.72 338.46 340.8 337.15 341.26 337.77C341.47 337.48 341.54 336.8 342.09 336.85C342.15 336.98 342.09 337.17 342.09 337.17C342.09 336.85 342.96 336.73 342.47 336.01C344 338.01 346.74 335.84 348.06 337.53C349.14 337.3 350.44 337.09 351.43 337.04C351.37 337.23 351.43 337.35 351.24 337.29C352.59 337.85 352.07 335.51 353.61 336.14C354.4 337.12 352.79 336.68 353.28 337.06C353.49 339.07 355.14 336.77 356.18 337.92L355.93 338.04C356.72 338.7 357.86 337.26 359.16 337.39C359.16 337.39 359.1 337.56 359.16 337.69C360.05 336.68 361.72 336.34 362.97 336.06C362.58 336.81 362.4 336.46 362.64 337.23C363.2 337.12 362.48 336 363.59 335.78C363.95 336.19 364.76 336.54 364.86 337.35L363.81 337.41C364.35 338.45 365.17 337.36 365.73 337.53L365.66 337.99C367.27 337.82 367.29 336.68 369.03 336.75L368.85 336.41C369.8 335.29 369.64 337.03 370.59 336.2L370.88 337.32C371.5 337.04 373.07 336.22 374.19 336.01C373.56 336.83 372.24 337.26 371.43 337.76C372.05 337.76 373.53 337.65 373.86 337.1C373.61 337.21 373.3 337.48 373.05 337.32C373.81 336.44 374.81 336.02 376.04 336.03C375.82 338.13 379.26 336.53 380.15 338.12C382.33 337.33 384.48 338.37 387.02 338.19C386.12 336.67 387.76 338.13 387.61 336.57C388.2 336.46 388.43 336.49 388.48 336.59L390.27 337.49C390.7 337.93 389.71 337.84 389.76 338.19C391.06 338.28 390.3 338.83 391.16 339.22C390.98 338.68 391.61 338.43 392.35 338.62L391.31 337.94C393.12 337.1 392.88 339.18 394.7 338.35L394.12 338.83C395.06 338.53 397.58 338.75 398.5 337.56C398.67 337.73 398.89 338.12 398.47 338.23C400.71 338.35 403.46 336.92 405.2 337.59L405.03 337.93C405.45 337.82 405.76 337.28 406.28 337.61C406.25 337.75 406.11 337.95 406.31 337.97C406.53 337.85 407.42 337.36 407.97 337.55L407.5 337.94C409.68 338.33 410.85 336.97 412.69 336.73C412.69 337.68 414.4 337.95 415.26 338.08L415.23 338.21C417.77 338.26 419.55 337.35 421.91 336.97C423.37 337.9 426.86 337.28 429.21 337.74C428.85 337.6 429.27 337.09 429.69 337C430.24 337.16 431.21 336.41 431.13 337.16H430.93C431.35 337.88 432.48 337.65 433.36 337.65L433.51 336.69C435.83 338.02 439.58 336.11 440.84 337.27C441.4 337.04 442.09 337.02 442.64 336.8L442.61 337.27C444.16 337.36 444.93 337.39 446.84 337.24L446.45 337.57C447.53 337.57 447.81 336.25 448.81 336.21L449.11 336.86C450.99 336.82 452.9 337.33 454.76 336.73C454.73 336.82 454.67 337 454.37 337.03C455.26 337.03 457.8 337.36 457.48 336.55C457.5 337.08 459.42 336.56 460.44 336.32L460.28 336.7C461.14 336.2 461.17 336.07 462.36 335.92C462.64 335.97 462.61 336.21 462.23 336.12C463.18 336.3 462.97 335.76 464.12 335.95L463.69 336.19C464.66 336.21 464.59 336.08 465.12 335.81C465.73 335.66 466.97 335.88 467.11 336.2C467.24 336 467.77 335.74 468.35 335.83C468.43 335.95 468.22 336.02 468.11 336.06C469.74 336.27 470.53 335.64 471.65 335.96C471.67 336.07 471.75 336.12 471.84 336.15C470.55 336.16 469.5 336.15 469.6 336.13C469.6 336.44 470.64 336.48 469.81 336.92C470.65 336.66 472.08 336.14 473.1 336.27C473.15 336.3 473.2 336.33 473.23 336.37L473.12 336.41C473.36 336.43 473.57 336.41 473.76 336.35C474.08 336.39 474.29 336.42 474.6 336.42C474.72 336.66 475.8 336.52 476.32 336.52C476.28 336.21 476.96 336.25 476.32 336C476.4 336.02 476.22 336.04 475.87 336.06C475.79 336.07 475.7 336.08 475.65 336.1L475.69 336.07C475.35 336.08 474.9 336.09 474.4 336.11C474.81 335.94 475.24 335.8 475.82 335.97C476.09 335.77 476.38 335.56 476.55 335.46C477.26 335.89 478.64 336.09 478.83 336.34C480.42 336.15 482.58 336.16 483.58 335.63C484.03 335.56 484.1 335.77 484.27 335.85C484.01 335.9 483.7 335.9 483.56 335.98C484.46 335.84 486.24 335.89 486.46 335.55C487.6 335.69 485.82 335.87 487.39 335.8L487.18 335.91C490.26 336.36 492.19 335.05 495.61 335.65C495.37 335.62 495.26 335.6 495.21 335.55C499.1 335.74 503.24 335.28 507.08 335.57C508.17 335.62 508.29 335.48 508.96 335.38L509.2 335.54L510.34 335.35C511.96 335.22 513.14 335.68 515.19 335.43L514.93 335.34C515.66 335.34 517.26 335.27 517.14 335.37C517.22 335.35 517.38 335.28 517.67 335.32L517.69 335.38L519.5 335.26C520.9 335.29 519.28 335.49 521.32 335.46C522.08 335.42 523.48 335.29 523.2 335.26C522.89 335.26 522.42 335.24 522.39 335.19L523.08 335.16C523.21 335.02 523.74 334.9 522.04 334.77L520.85 334.84L520.47 334.76L521.47 334.78C520.9 334.7 520.54 334.75 520.14 334.78C520.04 334.74 519.88 334.7 519.64 334.68L518.47 334.82C518.33 334.75 518.99 334.7 518.21 334.64C517.66 334.71 518.73 334.8 517.83 334.84C517.26 334.75 517.43 334.68 516.76 334.74C516.67 334.69 516.81 334.66 517.07 334.65C516.48 334.7 515.5 334.65 515.19 334.74C514.6 334.61 513.19 334.74 513.24 334.53C513.05 334.57 512.19 334.67 511.65 334.68C512.65 334.44 509.61 334.63 509.87 334.34C509.13 334.57 507.21 334.39 505.9 334.52C505.97 334.5 506.12 334.46 506.23 334.47C505.49 334.43 505.28 334.34 504.81 334.28C504.72 334.52 503.57 334.55 502.95 334.7C502.05 334.44 503.5 334.41 503.21 334.18C503.26 334.38 501.64 334.35 501.95 334.53C501.26 334.36 501.36 334.45 501 334.22C500.88 334.55 500.36 334.26 499.79 334.46C498.79 334.27 499.53 334.13 498.44 334.21C497.92 334.09 498.89 333.99 498.89 333.99H498.98ZM472.93 334.26C473.15 334.25 473.35 334.24 473.47 334.24C473.36 334.24 473.2 334.24 472.93 334.26ZM470.75 334.24C471.02 334.26 471.35 334.26 471.7 334.26C471.78 334.38 471.7 334.49 471.47 334.49C471.59 334.41 471.07 334.34 470.75 334.24ZM475.38 336.48C475.03 336.53 474.92 336.48 474.87 336.41C475.03 336.41 475.22 336.39 475.48 336.36C475.49 336.35 475.51 336.33 475.52 336.32C475.49 336.38 475.45 336.44 475.38 336.48Z" fill="#2B2B24"/>
<path d="M476 336.06C476.05 336.06 476.08 336.04 476.14 336.04C476.07 336.01 476 335.99 475.93 335.97C475.89 336 475.85 336.04 475.81 336.07C475.87 336.07 475.94 336.07 476 336.07V336.06Z" fill="#2B2B24"/>
<path d="M277.56 336.92L277.61 336.95C277.61 336.95 277.54 336.86 277.51 336.78C277.54 336.84 277.54 336.88 277.56 336.92Z" fill="#2B2B24"/>
<path d="M440.52 332.95V333.08L440.71 332.97L440.52 332.95Z" fill="#2B2B24"/>
<path d="M265.5 332.7C265.48 332.59 265.43 332.48 265.34 332.38C265.34 332.46 265.42 332.58 265.5 332.7Z" fill="#2B2B24"/>
<path d="M260.3 332.38L259.56 331.92C259.88 332.18 260.11 332.3 260.3 332.38Z" fill="#2B2B24"/>
<path d="M256.29 331.71C256.24 331.93 256.22 332.1 256.21 332.26L256.28 331.71H256.29Z" fill="#2B2B24"/>
<path d="M319.96 331.2C320.01 331.2 320.07 331.18 320.11 331.16C320.47 330.97 320.23 331.04 319.96 331.2Z" fill="#2B2B24"/>
<path d="M301.01 333.47C301.21 333.27 301.41 333.08 301.62 332.95C301.28 332.86 301.02 332.84 301.01 333.47Z" fill="#2B2B24"/>
<path d="M341.11 330.44C341.11 330.44 341.11 330.44 341.11 330.46C341.16 330.46 341.2 330.46 341.24 330.46L341.11 330.44Z" fill="#2B2B24"/>
<path d="M302.5 332.98C302.16 332.76 301.88 332.8 301.62 332.95C301.9 333.03 302.22 333.14 302.5 332.98Z" fill="#2B2B24"/>
<path d="M238.94 330.93L238.75 330.87C238.75 330.96 238.75 331.03 238.73 331.09L238.95 330.93H238.94Z" fill="#2B2B24"/>
<path d="M238.72 331.09L238.51 331.25C238.61 331.25 238.69 331.25 238.72 331.09Z" fill="#2B2B24"/>
<path d="M238.05 331.59L238.5 331.25C238.34 331.25 238.15 331.2 238.05 331.59Z" fill="#2B2B24"/>
<path d="M244.24 331.61L244.3 331.13C244.27 331.23 244.25 331.38 244.24 331.61Z" fill="#2B2B24"/>
<path d="M245.85 331.48C245.47 331.37 244.89 330.45 244.35 330.74L244.3 331.12C244.55 330.41 245.49 332.28 245.85 331.48Z" fill="#2B2B24"/>
<path d="M252.57 337.37L251.22 337C251.46 337.5 251.77 338.17 251.15 338.3C252.85 339.79 250.8 337.18 252.57 337.37Z" fill="#2B2B24"/>
<path d="M256.76 338.06C256.03 338.3 256.76 338.78 256.73 339.06C257.19 338.6 257.3 338.49 256.76 338.06Z" fill="#2B2B24"/>
<path d="M287 337.8L286.93 338.86C287.49 338.7 286.93 338.45 287 337.8Z" fill="#2B2B24"/>
<path d="M292.79 332.38L292.24 331.72L291.98 332.68L292.79 332.38Z" fill="#2B2B24"/>
<path d="M296.2 339.71L295.96 339.86L296.89 339.47L296.2 339.71Z" fill="#2B2B24"/>
<path d="M347 338.51L346.83 337.5C346.45 337.69 346.37 338.83 347 338.51Z" fill="#2B2B24"/>
<path d="M368.93 337.23C369.17 337.68 369.79 337.96 370.17 337.51C369.68 337.46 369.19 337.11 368.93 337.23Z" fill="#2B2B24"/>
<path d="M434.7 337.37L434.26 337.57L435.09 337.39L434.7 337.37Z" fill="#2B2B24"/>
<path d="M323.66 319.61L322.45 327.22L325.79 332.53L349.6 333.3L386.72 332.82L389.44 327.1L387.37 318.63L382.06 312.06L370.72 303.9L352.4 305.53L339.41 305.55L327.98 307.62L323.66 319.61Z" fill="#FFFBF0"/>
<path d="M483.56 319.72L482.56 329.09L486.93 333.07L515.6 333.04L546.18 332.57L548.69 328.98L548.68 322.37L541.15 308.95L526.2 303.99L512.97 306.73L506.44 297.37L488.14 307.44L483.56 319.72Z" fill="#FFFBF0"/>
<path d="M347.86 7.29004C360.33 7.32004 370.25 12.75 377.6 23.58C382.34 29.81 386.55 39.43 390.24 52.49C392.76 59.01 395 69.66 396.93 84.46C397.89 95.76 399.47 100.69 401.68 99.22C406.32 91.93 412.67 83.59 420.69 74.19C449.24 44.55 472.46 29.72 491.06 29.69C505.38 29.67 512.56 38.48 512.59 56.13L512.61 65.47C512.64 83.82 505.44 105.21 491.04 129.64C477.86 149.88 471.27 162.1 471.28 166.29C475.01 173.98 482.45 185.67 493.62 201.38C510.45 231.59 518.86 255.75 518.89 273.86V277.71C518.91 284.95 516.23 291.76 511.86 297.47C506.53 304.42 499.25 310.81 490.28 312.47C479.8 314.4 468.11 311 458.69 306.59C452.94 303.9 447.52 300.55 442.38 296.83C436.74 292.75 429.87 288.06 425.51 282.59C414.25 268.45 404.8 257.03 396.51 248.3C393.64 260.71 390.21 272.44 386.27 283.45C375.28 303.22 354.12 308.33 340.38 308.35H335.92C313.61 308.39 305.81 287.69 294.87 236.68C291.4 212.39 289.62 181.73 289.56 144.68C289.53 125.05 291.71 102.93 296.1 78.34C302.69 51.83 311.17 33.17 321.52 22.37C328.95 12.34 337.75 7.32004 347.88 7.30004L347.86 7.29004Z" fill="#CBEF6A"/>
<path d="M404.964 129.056C405.117 125.674 402.876 122.825 399.957 122.692C397.038 122.56 394.548 125.194 394.394 128.576C394.241 131.958 396.482 134.807 399.401 134.94C402.319 135.072 404.81 132.438 404.964 129.056Z" fill="#0C0C04"/>
<path d="M429.736 130.528C429.89 127.146 427.648 124.297 424.73 124.164C421.811 124.032 419.321 126.666 419.167 130.048C419.013 133.43 421.255 136.279 424.173 136.412C427.092 136.544 429.583 133.91 429.736 130.528Z" fill="#0C0C04"/>
<path d="M378.4 141.07C382.7 154.9 400.47 162.64 413.53 156.35" stroke="#0C0C04" stroke-width="3.61" stroke-linecap="round" stroke-linejoin="round"/>
<path d="M485.29 313.02C483.88 316.53 482.28 322.34 482.59 326.11C482.72 327.61 482.99 329.14 483.71 330.47C484.77 332.43 487.41 332.72 489.64 332.76C511.31 333.2 525.28 333.14 546.95 332.55C547.51 332.53 548.21 332.4 548.32 331.86C548.78 329.52 548.8 327.11 548.46 324.75C547.34 316.93 542.15 309.8 535.05 306.34C527.95 302.87 519.14 303.17 512.28 307.11C511.39 304.8 510.5 302.5 509.61 300.19C512.22 296.97 514.42 293.54 515.56 291.6C519.13 285.51 520.06 278.47 519.66 271.41" stroke="#0C0C04" stroke-width="3.61" stroke-linecap="round" stroke-linejoin="round"/>
<path d="M483.57 326.95C484.68 328.07 486.36 328.37 487.93 328.56C490.21 328.83 492.5 328.99 494.79 329.14C509.57 330.09 524.37 330.74 539.17 331.1C541.99 331.17 544.83 331.22 547.61 330.73" stroke="#0C0C04" stroke-width="5.52" stroke-linecap="round" stroke-linejoin="round"/>
<path d="M301.03 262.03C305.6 276.15 307.92 299.36 327.98 307.63C326.57 311.14 322.05 322.61 322.36 326.38C322.49 327.88 322.76 329.41 323.48 330.74C324.54 332.7 327.18 332.99 329.41 333.03C351.08 333.47 365.05 333.41 386.72 332.82C387.28 332.8 387.98 332.67 388.09 332.13C388.55 329.79 388.57 327.38 388.23 325.02C387.11 317.2 381.92 310.07 374.82 306.61C367.72 303.14 358.91 303.44 352.05 307.38" stroke="#0C0C04" stroke-width="3.61" stroke-linecap="round" stroke-linejoin="round"/>
<path d="M323.34 327.22C324.45 328.34 326.13 328.64 327.7 328.83C329.98 329.1 332.27 329.26 334.56 329.41C349.34 330.36 364.14 331.01 378.94 331.37C381.76 331.44 384.6 331.49 387.38 331" stroke="#0C0C04" stroke-width="5.52" stroke-linecap="round" stroke-linejoin="round"/>
<path d="M482.25 145.49C503.58 149.2 525.3 132.53 530.5 111.52C531.02 109.44 531.36 107.33 531.64 105.2C532.39 99.4602 532.59 93.6502 533.72 87.9602C534.26 85.2402 535.02 82.5502 536.21 80.0302C537.28 77.7602 538.6 75.4002 540.9 74.2202C543.43 72.9202 547.08 72.4302 549.56 74.0902C552.52 76.0702 551.92 80.1402 551.81 83.1902C551.65 87.8002 551.86 92.4602 551.91 97.0802C553.51 93.9002 557.64 92.2502 561 93.4502C564.75 94.8002 565.96 98.6802 565.96 102.15C569.26 100.71 573.17 99.2802 575.79 103.2C577.72 106.09 577.52 109.85 577.1 113.29C574.62 134.03 567.76 155.43 552.25 170.47C536.01 186.21 513.52 195.25 491.06 196.49" stroke="#0C0C04" stroke-width="3.61" stroke-linecap="round" stroke-linejoin="round"/>
<path d="M381.14 134.55C378.48 140.03 374.1 144.66 368.77 147.61" stroke="#0C0C04" stroke-width="3.61" stroke-linecap="round" stroke-linejoin="round"/>
<path d="M291.73 237.6L310.64 231.62L323.53 223.04L325.6 216.39L322.66 209.86C322.66 209.86 315.02 203.18 306.78 196.84C298.54 190.5 290.58 189.04 290.1 177.45L289.59 164.25L289.56 149.83L289.58 139.84L289.28 137.26L275.26 146.01L260.28 159.18L250.11 172.37C250.11 172.37 249.67 181.1 249.62 181.46C249.57 181.82 254.36 189.05 254.1 189.66C253.84 190.27 275.54 211.07 275.54 211.07L283.6 219.86L279.23 221.91L276.85 227.25L278.48 232.35L283.73 236.45L288.41 237.56L291.71 237.61L291.73 237.6Z" fill="#FFFBF0"/>
<path d="M291.63 136.04C278.62 142.48 266.89 151.49 257.31 162.4C253.35 166.91 249.59 172.22 249.62 178.22C249.66 185.66 255.41 191.68 260.77 196.84C268.78 204.54 276.78 212.24 284.79 219.94C280.21 219.04 276.07 224.3 276.98 228.88C277.89 233.46 282.41 236.65 287.02 237.39C291.63 238.13 296.32 236.89 300.76 235.44C309.05 232.74 317.29 229.13 323.53 223.04C326.25 220.38 326.18 215.8 324.4 212.44C322.62 209.08 319.52 206.65 316.5 204.33C311.41 200.41 306.31 196.49 301.22 192.56C300.61 192.09 299.94 191.49 299.99 190.73C300.04 190.03 300.68 189.53 301.26 189.13C310.69 182.67 320.11 176.22 329.54 169.76" stroke="#0C0C04" stroke-width="3.61" stroke-linecap="round" stroke-linejoin="round"/>
</g>
<defs>
<clipPath id="clip0_311_2">
<rect width="828.33" height="424.07" fill="white"/>
</clipPath>
</defs>
</svg>
