<svg width="630" height="1286" viewBox="0 0 630 1286" fill="none" xmlns="http://www.w3.org/2000/svg">
<g clip-path="url(#clip0_275_151)">
<path d="M-383.489 233.066C-442.382 423.378 -551.025 606.326 -540.369 805.254C-533.338 936.574 -470.918 1064.04 -371.498 1150.12C-304.514 1208.11 -221.343 1246.79 -134.189 1262.24C-39.2915 1279.05 40.5142 1264.83 126.499 1221.21C226.997 1170.23 322.457 1107.25 409.49 1035.71C507.896 954.805 624.182 848.998 599.129 707.279C586.258 634.462 535.143 573.2 475.036 530.138C414.92 487.077 345.551 459.26 278.324 428.447C238.437 410.162 196.407 388.142 176.781 348.895C144.334 284.012 185.726 188.904 232.63 141.528C291.072 82.4944 368.642 44.454 448.335 23.4905C552.836 -3.99987 662.253 -4.72475 770.306 -5.27728C780.098 -37.2247 770.862 -69.4492 752.445 -97.3295C734.018 -125.2 707.255 -146.479 679.611 -165.235C541.321 -259.057 368.181 -300.167 202.466 -278.522C36.7619 -256.878 -120.013 -172.679 -229.572 -46.4811" fill="#CBEF6A"/>
</g>
<defs>
<clipPath id="clip0_275_151">
<rect width="630" height="1286" fill="white"/>
</clipPath>
</defs>
</svg>
