<?xml version="1.0" encoding="UTF-8"?>
<svg id="Layer_2" data-name="Layer 2" xmlns="http://www.w3.org/2000/svg" viewBox="0 0 1669.78 316.23">
  <defs>
    <style>
      .cls-1 {
        fill: #131613;
      }

      .cls-2 {
        fill: none;
        stroke: #131613;
        stroke-linecap: round;
        stroke-linejoin: round;
        stroke-width: 5.25px;
      }

      .cls-3 {
        fill: #cbef6a;
      }
    </style>
  </defs>
  <g id="CMJN">
    <g>
      <g>
        <path class="cls-1" d="M395.66,185.66l41.78,126.54h-60.8l-28.37-92.85c-16.9,8.94-35.27,15.76-55.13,20.46l-12.74,72.39h-53.57l13.48-76.62,3.1-17.56.76.23,2.98.94,12.37-4.79-3.41-14.34,26.09-25.74,4.91-12.41-5.88-12.69-10.04-10.39-12.3-8.85,18.26-103.7h53.57l-27.87,158.3c16.13-5.36,30.5-12.53,43.06-21.59,21.8-15.71,39.05-35.33,51.74-58.89,12.69-23.56,21.51-49.49,26.48-77.83h53.96c-6.57,38.13-19.15,72.86-37.74,104.21-12.37,20.87-27.28,39.25-44.7,55.17Z"/>
        <path class="cls-1" d="M654.57,157.17c0-19.6-6.21-34.9-18.63-45.91-12.41-11-29.63-16.51-51.65-16.51-26.04,0-48.83,5.64-68.35,16.91-19.53,11.28-34.73,27.02-45.61,47.22-10.87,20.2-16.31,43.86-16.31,70.97s8.29,48.29,24.86,63.52c16.58,15.24,39.63,22.85,69.16,22.85,13.29,0,27.18-1.61,41.68-4.83,14.5-3.22,28.12-8.59,40.87-16.11l-13.89-47.72c-10.2,5.37-20.81,9.53-31.81,12.48-11.01,2.95-21.34,4.43-31.01,4.43-15.3,0-27.28-3.62-35.94-10.87-6.3-5.27-10.31-12.05-12.1-20.31,47.3-1.3,83.6-7.68,108.85-19.16,26.58-12.08,39.87-31.07,39.87-56.98ZM571.62,185.86c-15.83,4.86-36.76,7.83-62.8,8.91,1.32-4.43,2.94-8.65,4.91-12.64,5.84-11.81,13.99-21.01,24.46-27.58,10.47-6.57,22.62-9.87,36.44-9.87,8.32,0,14.76,1.48,19.33,4.43,4.56,2.95,6.85,7.05,6.85,12.28,0,10.34-9.74,18.49-29.19,24.46Z"/>
        <path class="cls-1" d="M801.23,94.75c-15.03,0-27.52,3.72-37.45,11.17-9.94,7.45-17.18,17.95-21.75,31.51h-5.9l1.07-38.66h-47.72l-37.65,213.43h55.37l18.17-103.28-.05.4c2.55-15.7,6.37-28.15,11.48-37.35,5.1-9.19,11.07-15.74,17.92-19.63,6.85-3.89,14.09-5.84,21.75-5.84,9.39,0,16.17,3.12,20.33,9.36,4.16,6.24,5.16,15.4,3.02,27.48l-22.75,128.86h55.37l22.95-130.07c5.1-28.72,3.05-50.47-6.14-65.24-9.2-14.76-25.2-22.15-48.02-22.15Z"/>
        <path class="cls-1" d="M1011.92,94.75c-15.03,0-27.52,3.72-37.45,11.17-9.94,7.45-17.18,17.95-21.75,31.51h-5.9l1.07-38.66h-47.72l-37.65,213.43h55.37l18.17-103.28-.05.4c2.55-15.7,6.37-28.15,11.48-37.35,5.1-9.19,11.07-15.74,17.92-19.63,6.85-3.89,14.09-5.84,21.75-5.84,9.39,0,16.17,3.12,20.33,9.36,4.16,6.24,5.16,15.4,3.02,27.48l-22.75,128.86h55.37l22.95-130.07c5.1-28.72,3.05-50.47-6.14-65.24-9.2-14.76-25.2-22.15-48.02-22.15Z"/>
        <path class="cls-1" d="M1268.01,111.26c-12.41-11-29.63-16.51-51.65-16.51-26.04,0-48.83,5.64-68.35,16.91-19.53,11.28-34.73,27.02-45.61,47.22-10.87,20.2-16.31,43.86-16.31,70.97s8.29,48.29,24.86,63.52c16.58,15.24,39.63,22.85,69.16,22.85,13.29,0,27.18-1.61,41.68-4.83,14.5-3.22,28.12-8.59,40.87-16.11l-13.89-47.72c-10.2,5.37-20.81,9.53-31.81,12.48-11.01,2.95-21.34,4.43-31.01,4.43-15.3,0-27.28-3.62-35.94-10.87-6.3-5.27-10.31-12.05-12.1-20.31,47.3-1.3,83.6-7.68,108.85-19.16,26.58-12.08,39.87-31.07,39.87-56.98,0-19.6-6.21-34.9-18.63-45.91ZM1203.68,185.86c-15.83,4.86-36.76,7.83-62.8,8.91,1.32-4.43,2.94-8.65,4.91-12.64,5.84-11.81,13.99-21.01,24.46-27.58,10.47-6.57,22.62-9.87,36.44-9.87,8.32,0,14.76,1.48,19.33,4.43,4.56,2.95,6.85,7.05,6.85,12.28,0,10.34-9.74,18.49-29.19,24.46Z"/>
        <path class="cls-1" d="M1421.65,261.97c-5.64,1.68-12.15,2.52-19.53,2.52-25.1,0-37.52-9.13-37.25-27.38,0-3.09.64-8.39,1.91-15.91,1.27-7.52,3.86-18.45,7.75-32.82l26.98-99.06c7.52-27.25,5.47-47.92-6.14-62.01-11.61-14.09-31.04-21.14-58.29-21.14-9.94,0-19.87.37-29.8,1.11-9.94.74-19.87,2.25-29.8,4.53l8.25,50.74c6.44-1.61,12.92-2.78,19.43-3.52,6.51-.74,12.99-1.11,19.43-1.11,8.86,0,15.3,2.69,19.33,8.05,4.03,5.37,4.7,13.16,2.01,23.36l-26.78,99.06c-4.16,15.3-6.88,27.18-8.15,35.64-1.28,8.46-1.91,14.83-1.91,19.13,0,24.43,6.81,42.72,20.44,54.87,13.62,12.15,33.86,18.22,60.7,18.22,13.42,0,25.34-1.44,35.74-4.33,10.4-2.88,20.3-6.41,29.7-10.57l-13.89-47.92c-7.79,4.03-14.5,6.88-20.14,8.56Z"/>
        <path class="cls-1" d="M1648.75,115.69c-14.03-13.96-33.59-20.94-58.69-20.94-37.32,0-66.44,12.68-87.38,38.05-20.94,25.37-31.41,60.74-31.41,106.11,0,24.3,7.01,43.26,21.04,56.88,14.02,13.63,33.59,20.44,58.69,20.44,37.32,0,66.44-12.51,87.38-37.55,20.94-25.03,31.41-59.9,31.41-104.6,0-24.97-7.01-44.43-21.04-58.39ZM1599.62,242.84c-9.33,14.43-22.32,21.64-38.96,21.64-10.47,0-18.62-3.19-24.46-9.56-5.84-6.37-8.76-15.27-8.76-26.68,0-25.64,4.76-45.67,14.29-60.1,9.53-14.43,22.76-21.64,39.67-21.64,10.2,0,18.12,3.19,23.76,9.56,5.64,6.38,8.46,15.27,8.46,26.68,0,25.64-4.67,45.67-13.99,60.1Z"/>
      </g>
      <g>
        <path class="cls-3" d="M242.75,67.54c-6.31-25.23-14.42-42.97-24.3-53.24-7.09-9.55-15.47-14.3-25.12-14.3-11.87.04-21.3,5.22-28.27,15.55-4.5,5.94-8.5,15.1-11.98,27.55-2.4,6.2-4.5,16.35-6.33,30.44-.88,10.76-2.38,15.45-4.48,14.07-4.44-6.94-10.5-14.87-18.14-23.81-27.24-28.16-49.38-42.25-67.07-42.25-6.55,0-13.37,1.46-18.61,5.55-15.92,12.37-7.83,39.54-.9,54.35,5.65,12.08,12.39,24.12,19.68,35.27,12.59,19.25,18.88,30.87,18.88,34.86-3.55,7.33-10.62,18.47-21.22,33.44-15.98,28.8-23.95,51.81-23.95,69.06v3.66c0,6.9,2.55,13.39,6.74,18.8,5.09,6.61,12.02,12.69,20.56,14.24,10,1.83,21.12-1.42,30.07-5.65,5.48-2.57,10.64-5.77,15.51-9.31,5.38-3.9,11.91-8.36,16.06-13.58,10.7-13.48,19.66-24.38,27.55-32.7,2.75,11.81,6.04,22.97,9.8,33.44,10.48,18.82,30.65,23.64,43.73,23.64h4.25c18.51,0,26.52-14.99,35.11-51.03,1.27-5.3,2.53-11.05,3.86-17.28v-.04l-.76-.23-14.28-4.5-12.28-8.15-1.99-6.33,2.79-6.24s7.27-6.37,15.1-12.41c7.58-5.86,14.95-7.37,15.8-17.48,0-.12.02-.21.02-.31.33-10.02.51-20.66.51-31.92,0-18.69-2.1-39.73-6.33-63.15Z" fill="currentColor"/>
        <g>
          <ellipse class="cls-1" cx="144.17" cy="115.79" rx="5.03" ry="5.84" transform="translate(-5.29 6.92) rotate(-2.7)"/>
          <ellipse class="cls-1" cx="120.58" cy="117.24" rx="5.03" ry="5.84" transform="translate(-5.39 5.81) rotate(-2.7)"/>
          <path class="cls-2" d="M164.48,127.42c-4.07,13.18-20.98,20.57-33.42,14.61"/>
        </g>
        <path class="cls-2" d="M62.97,291.31c1.35,3.34,2.88,8.87,2.59,12.46-.12,1.43-.38,2.88-1.06,4.15-1.01,1.87-3.52,2.15-5.64,2.19-20.63.45-33.93.42-54.57-.11-.53-.01-1.2-.14-1.3-.66-.45-2.22-.46-4.53-.15-6.77,1.05-7.45,5.98-14.24,12.74-17.55,6.76-3.31,15.15-3.04,21.68.69.84-2.2,1.69-4.4,2.53-6.6-2.49-3.06-4.59-6.32-5.68-8.17-3.41-5.8-4.31-12.49-3.93-19.21"/>
        <path class="cls-2" d="M64.63,304.57c-1.06,1.07-2.66,1.36-4.15,1.54-2.17.26-4.35.42-6.53.56-14.07.93-28.16,1.57-42.26,1.93-2.69.07-5.39.12-8.04-.34"/>
        <path class="cls-2" d="M242.54,237.98c-7.6,23.54-16.77,39.99-29.79,47.94,1.35,3.34,5.67,14.25,5.38,17.85-.12,1.43-.38,2.88-1.06,4.15-1.01,1.87-3.52,2.15-5.64,2.19-20.63.45-33.93.42-54.57-.11-.53-.01-1.2-.14-1.3-.66-.45-2.22-.46-4.53-.15-6.77,1.05-7.45,5.98-14.24,12.74-17.55,6.76-3.31,15.15-3.04,21.68.69"/>
        <path class="cls-2" d="M217.19,304.57c-1.06,1.07-2.66,1.36-4.15,1.54-2.17.26-4.35.42-6.53.56-14.07.93-28.16,1.57-42.26,1.93-2.69.07-5.39.12-8.04-.34"/>
        <path class="cls-2" d="M161.86,121.21c2.54,5.21,6.72,9.62,11.8,12.42"/>
        <path class="cls-2" d="M247.08,122.49c12.4,6.11,23.58,14.67,32.72,25.05,3.77,4.29,7.37,9.34,7.35,15.05-.02,7.09-5.49,12.82-10.59,17.74-7.61,7.35-15.22,14.69-22.83,22.04,4.36-.87,8.31,4.13,7.45,8.5-.86,4.36-5.16,7.41-9.55,8.12-4.39.71-8.86-.46-13.09-1.83-7.9-2.56-15.74-5.98-21.7-11.77-2.6-2.53-2.54-6.89-.85-10.09,1.69-3.2,4.64-5.52,7.51-7.73,4.84-3.74,9.69-7.49,14.53-11.23.58-.45,1.22-1.02,1.17-1.75-.05-.67-.66-1.14-1.21-1.52-8.99-6.13-17.97-12.26-26.96-18.4"/>
      </g>
    </g>
  </g>
</svg>