<?xml version="1.0" encoding="UTF-8"?>
<svg id="Layer_2" data-name="Layer 2" xmlns="http://www.w3.org/2000/svg" viewBox="0 0 2164.68 465.16">
  <defs>
    <style>
      .cls-1 {
        fill: #131613;
      }
    </style>
  </defs>
  <g id="CMJN">
    <g>
      <path class="cls-1" d="M320.33,186.22c27.89-47.02,46.77-99.12,56.64-156.31h-80.95c-7.45,42.49-20.69,81.4-39.71,116.74-19.03,35.34-44.91,64.79-77.63,88.35-18.85,13.57-40.39,24.35-64.61,32.37L155.86,29.9h-80.35L0,458.82h80.35l19.12-108.6c29.79-7.05,57.36-17.28,82.71-30.7l42.55,139.3h91.22l-62.66-189.82c26.11-23.9,48.47-51.47,67.04-82.78Z"/>
      <path class="cls-1" d="M641.68,226.24c0-29.4-9.32-52.36-27.94-68.87-18.62-16.51-44.45-24.77-77.48-24.77-39.06,0-73.25,8.46-102.54,25.37-29.3,16.92-52.1,40.53-68.42,70.83-16.31,30.31-24.46,65.8-24.46,106.47s12.43,72.45,37.3,95.3c24.87,22.86,59.45,34.28,103.76,34.28,19.93,0,40.78-2.42,62.52-7.25,21.75-4.83,42.18-12.88,61.31-24.17l-20.84-71.59c-15.31,8.06-31.21,14.3-47.73,18.73-16.51,4.43-32.02,6.65-46.51,6.65-22.96,0-40.93-5.44-53.91-16.31-9.45-7.91-15.47-18.08-18.15-30.47,70.96-1.95,125.41-11.52,163.29-28.74,39.87-18.12,59.81-46.61,59.81-85.48ZM517.24,269.28c-23.75,7.29-55.15,11.75-94.21,13.37,1.98-6.64,4.41-12.98,7.37-18.96,8.76-17.72,20.99-31.51,36.69-41.38,15.71-9.86,33.93-14.8,54.67-14.8,12.48,0,22.15,2.22,29,6.65,6.84,4.43,10.27,10.57,10.27,18.42,0,15.51-14.6,27.74-43.8,36.7Z"/>
      <path class="cls-1" d="M861.7,132.6c-22.55,0-41.28,5.59-56.18,16.76-14.91,11.18-25.78,26.93-32.62,47.27h-8.85l1.61-57.99h-71.59l-56.48,320.18h83.07l27.26-154.94-.08.59c3.83-23.56,9.56-42.24,17.22-56.03,7.65-13.79,16.61-23.61,26.88-29.45,10.27-5.84,21.14-8.76,32.62-8.76,14.09,0,24.26,4.68,30.51,14.05,6.24,9.36,7.75,23.11,4.53,41.23l-34.13,193.31h83.06l34.43-195.13c7.65-43.09,4.58-75.71-9.21-97.87-13.8-22.15-37.81-33.23-72.04-33.23Z"/>
      <path class="cls-1" d="M1177.77,132.6c-22.55,0-41.28,5.59-56.18,16.76-14.91,11.18-25.78,26.93-32.62,47.27h-8.85l1.61-57.99h-71.59l-56.48,320.18h83.07l27.26-154.94-.08.59c3.83-23.56,9.56-42.24,17.22-56.03,7.65-13.79,16.61-23.61,26.88-29.45,10.27-5.84,21.14-8.76,32.62-8.76,14.09,0,24.26,4.68,30.51,14.05,6.24,9.36,7.75,23.11,4.53,41.23l-34.13,193.31h83.06l34.43-195.13c7.65-43.09,4.58-75.71-9.21-97.87-13.8-22.15-37.81-33.23-72.04-33.23Z"/>
      <path class="cls-1" d="M1561.94,157.67c-18.62-16.51-44.45-24.77-77.48-24.77-39.06,0-73.25,8.46-102.54,25.37-29.3,16.92-52.1,40.53-68.42,70.83-16.31,30.31-24.46,65.8-24.46,106.47s12.43,72.45,37.3,95.3c24.87,22.86,59.45,34.28,103.76,34.28,19.93,0,40.78-2.42,62.52-7.25,21.75-4.83,42.18-12.88,61.31-24.17l-20.84-71.59c-15.31,8.06-31.21,14.3-47.73,18.73-16.51,4.43-32.02,6.65-46.51,6.65-22.96,0-40.93-5.44-53.91-16.31-9.45-7.91-15.47-18.08-18.15-30.47,70.96-1.95,125.41-11.52,163.29-28.74,39.87-18.12,59.81-46.61,59.81-85.48,0-29.4-9.32-52.36-27.94-68.87ZM1465.44,269.58c-23.75,7.29-55.15,11.75-94.21,13.37,1.98-6.64,4.41-12.98,7.37-18.96,8.76-17.72,20.99-31.51,36.69-41.38,15.71-9.86,33.93-14.8,54.67-14.8,12.48,0,22.15,2.22,29,6.65,6.84,4.43,10.27,10.57,10.27,18.42,0,15.51-14.6,27.74-43.8,36.7Z"/>
      <path class="cls-1" d="M1792.43,383.76c-8.46,2.52-18.22,3.78-29.3,3.78-37.66,0-56.29-13.69-55.88-41.08,0-4.63.95-12.58,2.87-23.86,1.91-11.27,5.78-27.68,11.63-49.23l40.47-148.61c11.28-40.88,8.2-71.89-9.22-93.03-17.42-21.14-46.57-31.72-87.44-31.72-14.91,0-29.81.56-44.7,1.66-14.91,1.11-29.8,3.37-44.7,6.8l12.38,76.12c9.67-2.42,19.38-4.18,29.15-5.29,9.77-1.1,19.49-1.66,29.15-1.66,13.29,0,22.95,4.03,28.99,12.08,6.04,8.06,7.05,19.74,3.02,35.04l-40.17,148.61c-6.24,22.96-10.32,40.78-12.23,53.46-1.92,12.69-2.87,22.25-2.87,28.7,0,36.65,10.22,64.09,30.66,82.31,20.43,18.23,50.79,27.34,91.07,27.34,20.14,0,38.01-2.17,53.62-6.49,15.6-4.33,30.45-9.61,44.55-15.86l-20.84-71.89c-11.68,6.04-21.75,10.32-30.21,12.84Z"/>
      <path class="cls-1" d="M2133.12,164.32c-21.05-20.94-50.4-31.41-88.05-31.41-55.98,0-99.68,19.03-131.09,57.09s-47.12,91.12-47.12,159.18c0,36.45,10.52,64.89,31.57,85.33,21.04,20.44,50.39,30.66,88.05,30.66,55.98,0,99.68-18.77,131.09-56.33,31.41-37.55,47.12-89.86,47.12-156.92,0-37.45-10.52-66.65-31.56-87.59ZM2059.41,355.06c-13.99,21.65-33.48,32.47-58.45,32.47-15.71,0-27.94-4.78-36.69-14.35-8.76-9.56-13.14-22.9-13.14-40.02,0-38.46,7.15-68.51,21.44-90.16,14.3-21.64,34.14-32.47,59.51-32.47,15.3,0,27.18,4.79,35.64,14.35,8.46,9.57,12.69,22.91,12.69,40.02,0,38.46-7,68.52-20.99,90.16Z"/>
    </g>
  </g>
</svg>