<svg width="2732" height="1434" viewBox="0 0 2732 1434" fill="none" xmlns="http://www.w3.org/2000/svg">
<path d="M1721.3 1072.62C1699.1 1076.1 1676.28 1079.46 1653.85 1080.23C1631.39 1081.01 1607.62 1075.28 1584.94 1073.62C1532.95 1069.81 1478.63 1068.27 1426.5 1070.96C1395.53 1072.56 1366.11 1081.54 1343.42 1103.59C1336.32 1110.49 1329.96 1118.71 1327.88 1128.38C1320.54 1162.43 1366.34 1170.55 1389.52 1177.59C1415.45 1185.46 1441.65 1192.43 1468.06 1198.49C1487.62 1202.98 1508.7 1203.8 1526.99 1212.78C1543.8 1221.03 1561.6 1240.06 1554.16 1260.12C1548.32 1275.86 1530 1282.59 1513.6 1286.19C1426.56 1305.31 1331.96 1290.81 1250.58 1327.13C1233.94 1334.56 1207.71 1346 1196.98 1361.42C1186.67 1376.25 1185.87 1397.63 1176.09 1413.29C1166.92 1427.96 1147.25 1438.85 1132.38 1430.01C1123.82 1424.92 1119.49 1414.71 1118.41 1404.81C1117.33 1394.91 1118.94 1384.94 1119.39 1374.98C1120.95 1340.1 1107.5 1304.81 1083.12 1279.82C1041.81 1237.49 984.989 1240.59 930.569 1236.66C870.369 1232.31 809.879 1223.37 752.069 1205.67C731.339 1199.39 711.989 1193.23 694.019 1183.39C682.439 1177.17 670.609 1167.23 665.779 1155.98C654.979 1130.83 670.929 1102.66 699.029 1089.83C729.429 1075.96 761.839 1073.01 795.249 1066.82C827.349 1061.46 863.429 1055.47 896.069 1049.77C918.729 1045.82 939.409 1041.47 955.809 1034.34C1013.67 1010.87 992.619 956.955 944.339 938.505C917.939 928.905 896.399 926.615 865.539 920.055C837.669 914.485 810.549 908.865 782.339 902.695C688.179 882.805 587.809 854.195 500.489 821.645C473.029 811.135 442.829 800.995 427.519 775.075C413.479 750.635 417.299 720.635 432.159 696.725C455.279 658.505 498.729 633.925 528.699 601.455C581.329 543.005 525.929 532.745 473.369 531.715C449.999 531.185 424.249 531.075 400.059 530.255C341.459 528.705 280.939 523.545 224.029 514.555C157.529 504.945 34.9992 474.775 6.21921 410.685C-2.12079 392.895 -2.12078 373.176 6.50922 355.945C13.8892 340.355 29.4192 329.125 45.1892 317.935C106.429 276.465 170.309 236.846 238.559 206.576C289.759 183.436 350.009 166.576 401.679 158.725C454.249 151.265 519.819 140.955 442.129 94.2655C422.889 81.2255 373.459 57.8355 385.869 35.2155C391.849 26.3655 401.359 23.4655 414.729 19.5555C434.419 15.1255 455.389 13.8255 476.299 11.8055C532.159 6.69548 590.619 3.42548 647.919 1.47548C934.079 -2.80452 1215.33 3.58548 1679.9 3.61548C1914.92 4.33548 2221.74 5.68548 2441.23 6.84548C2478.16 8.12548 2518.55 16.7755 2555.93 25.3255C2612.16 38.9255 2672.83 57.1655 2708.21 105.745C2763.28 180.695 2712.06 264.145 2634.63 296.085C2604.72 309.345 2576.17 316.195 2542.75 324.445C2510.76 332.165 2477.22 339.296 2445.41 346.875C2395.48 359.585 2332.99 374.406 2300.31 413.546C2247.72 482.185 2352.99 512.475 2394.09 546.075C2427.27 571.025 2441.21 613.225 2420.83 650.105C2408.03 673.075 2386 687.095 2362.5 697.245C2289.48 730.995 2135.73 777.485 2023.08 792.515C1961.3 802.565 1890.7 811.165 1832.25 822.575C1808.26 827.205 1786.93 831.845 1770.31 837.075C1751.61 842.595 1732.21 854.275 1743.15 876.575C1759.92 908.555 1804.85 930.715 1825.81 961.175C1846.65 988.885 1839.33 1025.16 1812.33 1045.18C1785.39 1064.7 1756.15 1067.14 1721.36 1072.58L1721.3 1072.62Z" fill="#CBEF6A"/>
</svg>
