<svg width="2731" height="959" viewBox="0 0 2731 959" fill="none" xmlns="http://www.w3.org/2000/svg">
<g clip-path="url(#clip0_312_91)">
<path d="M1762.55 528.958C1740.95 535.154 1718.72 541.307 1696.56 544.841C1674.36 548.389 1650.07 545.639 1627.36 546.793C1575.3 549.434 1521.2 554.615 1469.8 563.723C1439.27 569.136 1411.18 581.682 1391.39 606.365C1385.2 614.089 1379.9 623.032 1379.03 632.885C1375.95 667.581 1422.4 669.982 1446.28 674.105C1472.98 678.712 1499.84 682.392 1526.8 685.144C1546.76 687.183 1567.78 685.393 1587.04 692.046C1604.74 698.156 1624.75 714.842 1619.85 735.667C1616 752.008 1598.65 760.949 1582.82 766.547C1498.81 796.272 1403.14 793.567 1326.87 839.661C1311.28 849.089 1286.66 863.681 1277.92 880.308C1269.52 896.298 1271.36 917.613 1263.59 934.361C1256.3 950.052 1238.13 963.288 1222.28 956.352C1213.16 952.359 1207.6 942.762 1205.31 933.071C1203.01 923.38 1203.38 913.288 1202.59 903.348C1199.83 868.543 1182.13 835.184 1154.85 813.397C1108.63 776.493 1052.62 786.588 998.136 789.41C937.86 792.528 876.729 791.128 817.175 780.704C795.828 777.033 775.866 773.31 756.818 765.765C744.558 761.023 731.591 752.62 725.409 742.053C711.585 718.429 723.933 688.505 750.234 672.302C778.688 654.784 810.485 647.853 842.875 637.584C874.067 628.3 909.131 617.9 940.817 608.212C962.815 601.493 982.8 594.622 998.193 585.521C1052.71 555.084 1025.16 504.187 974.975 491.842C947.591 485.576 925.933 485.964 894.499 483.266C866.155 481.181 838.548 478.954 809.792 476.315C713.897 468.208 610.761 452.214 520.09 430.699C491.542 423.661 460.321 417.329 441.926 393.498C424.975 370.979 425.061 340.737 436.854 315.175C455.076 274.392 481.38 263.314 488.872 253.814C537.372 192.314 369.086 164.738 316.801 170.208C281.872 173.862 247.394 185.112 223.872 190.814C190.872 198.814 156.872 207.053 56.7681 207.053C-24.7574 207.053 -128.111 151.068 -151.239 84.7283C-158.008 66.2835 -34.0645 47.7428 -27.6287 29.5788C-22.2308 13.1966 -8.20681 0.13439 6.0603 -12.9178C61.7092 -61.6343 120.206 -108.841 184.195 -147.309C232.145 -176.596 289.851 -200.769 340.156 -214.941C391.402 -228.837 455.196 -247.167 372.334 -283.903C351.631 -294.467 299.69 -311.572 309.211 -335.552C314.053 -345.073 323.132 -349.125 335.916 -354.657C354.908 -361.485 375.557 -365.365 396.057 -369.952C450.858 -381.923 508.467 -392.388 565.087 -401.401C848.527 -440.993 1128.41 -469.391 1589.43 -526.742C1822.74 -555.056 2127.38 -591.614 2345.33 -617.573C2382.13 -620.864 2423.28 -617.269 2461.43 -613.402C2518.91 -606.851 2581.37 -596.244 2622.48 -552.406C2686.39 -484.832 2645.87 -395.695 2572.97 -354.436C2544.93 -337.583 2517.45 -327.259 2485.3 -314.944C2454.51 -303.332 2422.11 -292.114 2391.48 -280.663C2343.5 -261.883 2283.32 -239.458 2255.72 -196.581C2212.01 -121.971 2320.22 -104.916 2365.15 -76.6495C2401.16 -55.9888 2420.21 -15.8337 2404.54 23.2811C2394.67 47.6562 2374.54 64.2899 2352.48 77.2648C2284.19 119.775 2137.35 184.9 2027.42 213.729C1967.36 231.333 1898.36 248.587 1841.77 267.129C1818.53 274.687 1797.94 281.926 1782.09 289.169C1764.22 296.956 1746.41 310.943 1760.02 331.721C1780.61 361.385 1827.93 377.825 1852.5 405.463C1876.6 430.387 1873.81 467.283 1849.49 490.485C1825.17 513.183 1796.46 519.216 1762.6 528.911L1762.55 528.958Z" fill="#CBEF6A"/>
</g>
<defs>
<clipPath id="clip0_312_91">
<rect width="2731" height="959" fill="white"/>
</clipPath>
</defs>
</svg>
