<svg width="566" height="425" viewBox="0 0 566 425" fill="none" xmlns="http://www.w3.org/2000/svg">
<path d="M373.782 423.3C372.592 424.02 371.252 424.5 369.882 424.43C363.142 424.1 359.072 413.54 356.762 408.44C353.872 402.04 350.952 395.3 345.022 391.11C337.842 386.03 329.092 383.69 320.712 381.44C309.562 378.44 298.072 376.97 286.612 375.83C261.532 373.34 235.222 371.84 213.632 358.84C210.952 357.22 208.262 355.33 206.822 352.54C203.582 346.22 208.202 338.58 213.782 334.18C219.502 329.67 226.282 326.76 232.652 323.22C239.022 319.68 245.252 315.24 248.672 308.82C252.102 302.39 251.932 293.58 246.602 288.61C241.792 284.13 234.502 283.91 227.932 284.15C195.612 285.29 163.602 290.9 131.322 292.86C99.0423 294.82 65.6923 292.9 36.1323 279.76C25.9423 275.23 15.0123 267.14 15.6023 256.01C15.9323 249.78 20.0523 244.25 25.1623 240.66C30.2723 237.08 36.3123 235.12 42.2523 233.22C65.8623 225.66 89.4723 218.09 113.072 210.53C116.642 209.39 120.902 207.39 121.022 203.64C121.142 199.77 116.772 197.53 113.102 196.3C88.7823 188.11 63.9423 181.48 38.7723 176.46C30.9123 174.89 22.8923 173.44 15.7323 169.84C8.57234 166.24 2.23234 160.09 0.482338 152.26C-1.41766 143.74 2.50234 134.74 8.61234 128.51C19.8323 117.08 36.8523 3.62967 52.7923 2.27967C88.6323 -0.770334 122.872 6.27967 158.332 7.58967C195.532 8.96967 232.782 18.1397 270.012 15.6497C307.192 13.1697 343.982 -0.940334 381.222 0.0496656C421.252 1.11967 461.452 13.1597 500.812 5.75967C522.612 1.65967 547.722 113.7 559.202 132.69C567.112 145.78 566.902 162.13 562.002 176.24C556.952 190.8 548.492 198.69 535.502 206.95C510.582 222.79 481.092 229.95 452.282 234.69C441.362 236.49 430.092 238.1 420.492 243.63C410.902 249.16 403.262 259.71 404.742 270.68C406.572 284.22 420.692 292.41 433.852 296.1C447.002 299.79 461.522 301.46 471.802 310.46C474.602 312.91 477.122 316.24 476.892 319.96C476.452 326.94 467.672 329.52 460.732 330.42C442.892 332.71 425.152 335.79 407.582 339.65C400.712 341.16 393.762 342.83 387.682 346.37C381.612 349.92 376.452 355.65 375.242 362.58C373.412 373.02 379.832 382.38 382.572 392.03C385.252 401.46 383.852 413.23 376.962 420.66C376.362 421.31 375.712 421.92 375.012 422.47C374.632 422.77 374.222 423.06 373.802 423.32L373.782 423.3Z" fill="#CBEF6A"/>
</svg>
