<svg width="498" height="534" viewBox="0 0 498 534" fill="none" xmlns="http://www.w3.org/2000/svg">
<path d="M4.24004 402.018C4.79004 402.478 5.40004 402.878 6.07004 403.228C8.48004 404.478 11.27 404.738 13.98 404.708C22.79 404.618 30.31 401.528 37.73 397.058C44.5 392.978 48.2 390.378 56.19 392.458C68.71 395.708 79.84 404.458 91.08 410.558C110.19 420.928 130.37 430.808 151.8 435.248C233.81 452.228 322.94 450.308 388.79 392.118C435.73 350.698 451.69 297.398 447.45 242.838C446.15 226.098 448.13 209.358 453.88 193.578C454.04 193.128 454.21 192.678 454.37 192.228C471.35 144.168 470.39 79.9578 441.5 36.4278C404.4 -19.4322 318.01 -5.46221 278.44 40.6678C256.81 65.9978 246.13 99.1278 239.56 131.168C237.23 142.938 235.18 154.718 234.22 166.488C179.32 185.248 127.29 223.308 90.6 264.238C82.26 273.538 75.08 284.078 66.23 292.778C53.08 305.708 40.64 319.348 28.3 333.038C16.86 345.728 6.01004 362.568 1.70004 379.308C-0.0399641 386.078 -1.93996 396.828 4.24004 401.998V402.018Z" fill="#F16A27"/>
<path d="M415.6 94.2439C415.823 89.4995 412.686 85.4969 408.593 85.3039C404.5 85.1108 401 88.8004 400.776 93.5448C400.552 98.2892 403.689 102.292 407.783 102.485C411.876 102.678 415.376 98.9882 415.6 94.2439Z" fill="#010103"/>
<path d="M363.484 95.3786C363.707 90.6342 360.571 86.6317 356.477 86.4386C352.384 86.2456 348.884 89.9352 348.66 94.6796C348.437 99.4239 351.573 103.427 355.667 103.62C359.76 103.813 363.26 100.123 363.484 95.3786Z" fill="#010103"/>
<path d="M281.98 440.668C277.19 461.198 274.2 476.158 273.05 497.208C272.94 499.238 272.9 501.448 274.12 503.068C275.36 504.708 277.55 505.268 279.56 505.688C295.67 509.048 312.18 510.498 328.63 509.998" stroke="#010103" stroke-width="6.85" stroke-linecap="round" stroke-linejoin="round"/>
<path d="M229.97 408.638C226.57 445.488 222.39 482.258 217.45 518.928C217.05 521.888 218.97 524.718 221.89 525.358C234.09 528.038 246.52 529.638 259 530.138" stroke="#010103" stroke-width="6.85" stroke-linecap="round" stroke-linejoin="round"/>
<path d="M282.74 281.778C246.12 344.438 169.03 380.708 97.4102 368.978" stroke="#010103" stroke-width="6.85" stroke-linecap="round" stroke-linejoin="round"/>
<path d="M434.15 137.008C439.98 144.548 450.17 146.958 459.17 147.938C470.65 149.188 482.44 148.928 493.82 147.008" stroke="#010103" stroke-width="6.85" stroke-linecap="round" stroke-linejoin="round"/>
</svg>
