<svg width="402" height="544" viewBox="0 0 402 544" fill="none" xmlns="http://www.w3.org/2000/svg">
<path d="M5.55571 446.722C7.88571 467.942 13.0857 490.122 27.8757 505.732C51.4257 530.372 86.2157 537.152 119.346 529.622C128.796 527.432 143.976 516.682 146.296 507.372C145.456 554.512 248.956 537.322 288.766 537.322C334.306 537.322 402.006 508.522 402.006 412.092C402.006 346.792 394.116 346.792 373.286 286.162C365.616 263.842 343.716 236.882 350.556 212.512C351.786 208.132 353.976 204.022 353.706 199.502C354.666 198.542 355.486 197.582 356.306 196.492C360.546 190.332 360.956 182.532 360.686 175.132C360.276 165.962 359.176 156.782 357.266 147.752C355.216 138.302 353.026 128.722 350.966 119.142C350.286 116.262 349.736 113.392 348.916 110.382C352.746 78.4818 348.776 45.7619 336.736 15.9119C335.226 12.0819 333.316 7.97188 329.756 5.92188C322.636 1.81188 314.146 7.29183 307.986 12.4918C294.436 23.8518 280.876 35.0819 267.456 46.4419C240.346 39.0519 209.136 35.4919 184.766 48.7719C178.336 39.4619 170.806 30.8319 162.446 23.4419C153.956 15.9119 127.536 -8.8681 115.346 3.3119C112.336 6.3219 111.106 10.4319 110.006 14.5419C101.886 45.1019 96.6557 76.8519 96.7157 108.532C96.7957 151.592 102.206 183.852 81.2257 223.512C75.6357 234.072 70.0957 244.762 64.6957 255.582C26.9657 331.092 -3.8543 361.042 5.5457 446.732L5.55571 446.722Z" fill="#A2B2CB"/>
<path d="M122.206 134.962C102.826 131.922 83.5957 127.952 64.6057 123.082" stroke="#010103" stroke-width="6.85" stroke-linecap="round" stroke-linejoin="round"/>
<path d="M110.146 163.132C94.0758 164.722 78.0058 166.312 61.9358 167.892" stroke="#010103" stroke-width="6.85" stroke-linecap="round" stroke-linejoin="round"/>
<path d="M115.406 195.212C99.6557 197.722 84.0257 200.972 68.5857 204.932" stroke="#010103" stroke-width="6.85" stroke-linecap="round" stroke-linejoin="round"/>
<path d="M339.376 195.082C352.516 201.832 366.776 206.382 381.386 208.492" stroke="#010103" stroke-width="6.85" stroke-linecap="round" stroke-linejoin="round"/>
<path d="M347.176 163.282C360.566 164.232 373.956 165.182 387.346 166.132" stroke="#010103" stroke-width="6.85" stroke-linecap="round" stroke-linejoin="round"/>
<path d="M337.716 134.182C353.576 131.342 369.436 128.512 385.296 125.672" stroke="#010103" stroke-width="6.85" stroke-linecap="round" stroke-linejoin="round"/>
<path d="M238.736 148.182C231.316 148.412 223.906 148.632 216.486 148.862" stroke="#010103" stroke-width="6.85" stroke-linecap="round" stroke-linejoin="round"/>
<path d="M227.876 148.402C228.146 157.572 231.576 166.882 238.556 172.772C247.456 180.302 262.786 180.442 270.046 171.132" stroke="#010103" stroke-width="6.85" stroke-linecap="round" stroke-linejoin="round"/>
<path d="M185.706 173.862C192.966 183.032 208.296 183.032 217.336 175.372C224.866 168.942 228.286 158.532 227.876 148.402" stroke="#010103" stroke-width="6.85" stroke-linecap="round" stroke-linejoin="round"/>
<path d="M272.776 133.462C276.874 133.462 280.196 129.611 280.196 124.862C280.196 120.112 276.874 116.262 272.776 116.262C268.678 116.262 265.356 120.112 265.356 124.862C265.356 129.611 268.678 133.462 272.776 133.462Z" fill="#010103"/>
<path d="M176.846 133.462C180.944 133.462 184.266 129.611 184.266 124.862C184.266 120.112 180.944 116.262 176.846 116.262C172.748 116.262 169.426 120.112 169.426 124.862C169.426 129.611 172.748 133.462 176.846 133.462Z" fill="#010103"/>
<path d="M88.0457 467.632C103.786 464.572 123.886 463.852 137.816 473.172C155.416 484.952 154.716 509.382 138.486 522.222C129.166 529.592 117.026 532.472 105.176 533.342C80.8257 535.122 51.5857 529.682 32.5457 513.482C6.40574 491.232 0.925712 437.992 4.33571 398.492" stroke="#010103" stroke-width="6.85" stroke-linecap="round" stroke-linejoin="round"/>
<path d="M265.036 373.922L254.326 540.002" stroke="#010103" stroke-width="6.85" stroke-linecap="round" stroke-linejoin="round"/>
<path d="M167.936 373.922L180.206 537.322" stroke="#010103" stroke-width="6.85" stroke-linecap="round" stroke-linejoin="round"/>
</svg>
