<svg width="485" height="548" viewBox="0 0 485 548" fill="none" xmlns="http://www.w3.org/2000/svg">
<path d="M402.807 497.753V512.953" stroke="#010103" stroke-width="3.65" stroke-miterlimit="10"/>
<path d="M392.807 499.123C395.957 498.023 399.378 497.483 402.798 497.753" stroke="#010103" stroke-width="3.65" stroke-miterlimit="10"/>
<path d="M0.287469 342.093C2.33747 380.423 13.7075 418.623 35.8875 449.843C42.4975 459.153 50.2475 467.583 58.7575 475.203C64.5075 480.333 72.7275 482.793 77.8575 488.573C83.3375 494.753 83.0275 503.613 84.0275 511.573C86.5575 531.683 102.977 543.633 122.677 543.633H363.087C380.477 543.633 392.657 544.183 407.447 543.083C413.477 542.673 420.177 541.853 424.427 537.473C427.297 534.463 428.537 530.213 428.807 526.113C429.357 517.353 425.107 508.313 417.987 502.973C413.607 499.683 408.267 497.903 402.787 497.773V198.823C404.567 197.453 406.347 195.813 407.857 194.033C421.277 178.703 425.657 154.463 424.007 128.593C426.017 136.343 426.158 155.983 448.457 155.983C497.797 155.983 487.347 90.033 470.337 54.413C450.257 12.363 416.827 6.41307 374.587 3.86307C349.667 2.35307 324.617 3.86309 299.837 1.26309C270.807 -1.61691 241.377 0.713079 212.627 5.37308C190.997 8.93308 168.127 15.3631 154.847 32.7531C144.987 45.8931 142.257 63.143 141.157 79.573C139.927 96.143 139.377 113.523 140.747 130.093C141.567 140.503 144.717 151.453 152.527 158.433C160.327 165.283 171.967 167.603 182.647 165.693C177.037 188.013 134.457 261.333 114.877 302.273C99.6775 333.903 86.1275 370.723 86.1275 406.733C72.1575 390.303 60.9375 371.683 51.6275 352.243C38.3475 324.313 28.8975 292.143 38.4875 262.703C39.1775 260.513 39.7175 257.633 37.7975 256.403C33.5575 253.393 27.3875 254.483 23.1475 257.633C18.7675 260.643 16.1675 265.433 13.8375 270.233C6.57747 284.883 2.06747 300.903 0.557469 317.053C-0.132531 325.403 -0.132531 333.753 0.287469 342.103V342.093Z" fill="#FDD841"/>
<path d="M140.977 132.283C143.327 149.033 155.717 163.963 166.907 165.283C189.157 167.893 204.397 156.133 212.227 136.373C226.467 100.093 235.507 63.4032 234.957 24.2432" stroke="#010103" stroke-width="6.85" stroke-linecap="round" stroke-linejoin="round"/>
<path d="M410.878 73.873C417.678 89.893 421.268 107.073 423.418 124.313C425.478 140.853 424.848 159.373 418.688 175.153" stroke="#010103" stroke-width="6.85" stroke-linecap="round" stroke-linejoin="round"/>
<path d="M348.247 140.553C341.967 140.433 335.697 140.313 329.417 140.193" stroke="#010103" stroke-width="6.85" stroke-linecap="round" stroke-linejoin="round"/>
<path d="M339.057 140.263C338.787 149.433 341.167 158.893 346.747 165.093C353.847 173.023 366.797 173.873 373.437 164.913" stroke="#010103" stroke-width="6.85" stroke-linecap="round" stroke-linejoin="round"/>
<path d="M302.047 163.733C307.677 173.233 320.627 173.943 328.677 166.703C335.387 160.623 338.847 150.393 339.057 140.263" stroke="#010103" stroke-width="6.85" stroke-linecap="round" stroke-linejoin="round"/>
<path d="M373.437 107.273C377.535 107.273 380.857 103.423 380.857 98.673C380.857 93.9233 377.535 90.073 373.437 90.073C369.339 90.073 366.017 93.9233 366.017 98.673C366.017 103.423 369.339 107.273 373.437 107.273Z" fill="#010103"/>
<path d="M294.627 107.273C298.725 107.273 302.047 103.423 302.047 98.673C302.047 93.9233 298.725 90.073 294.627 90.073C290.529 90.073 287.207 93.9233 287.207 98.673C287.207 103.423 290.529 107.273 294.627 107.273Z" fill="#010103"/>
<path d="M333.547 352.313V543.633" stroke="#010103" stroke-width="6.85" stroke-linecap="round" stroke-linejoin="round"/>
<path d="M123.487 361.233C135.827 345.283 155.627 334.623 176.527 332.673C204.297 330.083 236.417 342.663 246.177 368.253C255.357 392.303 251.787 420.013 244.657 444.103C238.267 465.693 223.047 480.853 216.317 501.893C219.467 500.593 221.717 499.953 224.157 499.143C232.517 496.383 243.107 499.203 250.187 504.193C257.277 509.183 261.037 518.903 260.547 527.203C260.317 531.073 259.047 535.033 256.187 537.833C251.937 541.983 245.267 542.753 239.147 543.143C231.377 543.643 224.327 543.753 216.847 543.743H130.597" stroke="#010103" stroke-width="6.85" stroke-linecap="round" stroke-linejoin="round"/>
</svg>
