<svg width="460" height="445" viewBox="0 0 460 445" fill="none" xmlns="http://www.w3.org/2000/svg">
<path d="M433.561 344.92C419.241 367.33 402.011 387.75 388.481 410.68C389.141 409.49 397.101 409.35 398.421 409.22C402.261 408.82 406.111 408.69 409.821 409.35C415.521 410.41 420.561 413.33 423.871 418.1C426.391 421.68 427.721 426.45 425.991 430.56C424.141 435.6 417.241 440.5 411.811 440.5C401.871 440.5 382.511 440.9 365.011 441.16H94.2811C76.7811 440.89 57.4211 440.5 47.4811 440.5C42.0411 440.5 35.1511 435.59 33.2911 430.56C31.5611 426.45 32.8911 421.68 35.4111 418.1C38.7211 413.33 43.7611 410.41 49.4611 409.35C53.1711 408.69 57.0211 408.82 60.8611 409.22C62.3211 409.35 70.1411 409.48 70.8011 410.68C57.2811 387.74 40.0411 367.32 25.7211 344.92C11.4011 322.51 -0.128911 297.06 0.00108859 270.54C0.00108859 260.99 1.85109 250.65 8.88109 244.16C11.4011 241.77 14.4511 240.05 17.5011 238.59C39.5111 228.38 70.8011 228.78 90.8211 242.57C94.9311 246.15 99.3011 249.46 103.941 252.38C100.101 249.07 95.9911 246.15 91.2111 242.83C91.0811 242.7 90.9411 242.7 90.8211 242.56C72.5211 226.38 59.6611 203.31 54.4911 179.85C47.3311 147.23 56.4811 113.16 77.1611 87.97C67.6111 61.98 68.8111 32.68 90.0211 14.12C103.561 2.32999 124.111 -1.65001 141.611 0.599993C166.931 4.04999 178.601 23.8 185.101 45.81C205.521 45.15 225.541 43.69 246.091 44.48C251.661 44.75 257.361 45.01 263.061 45.54C269.691 23.66 281.231 4.03999 306.551 0.589993C324.051 -1.66001 344.601 2.30999 358.121 14.11C377.611 31.35 380.131 57.46 372.971 81.86C386.101 92.73 396.571 106.52 401.481 122.7C411.421 155.98 400.551 197.21 380.931 225.06C375.501 232.75 370.061 239.11 364.221 244.28C359.581 247.59 355.601 250.51 352.021 253.69C356.261 251.04 360.241 247.99 364.221 244.28C384.241 230.09 419.641 228.24 441.781 238.58C444.831 240.04 447.881 241.76 450.401 244.15C457.431 250.65 459.281 260.99 459.281 270.53C459.411 297.05 447.881 322.5 433.561 344.91V344.92Z" fill="#84C134"/>
<path d="M135.896 54.3665C136.19 48.1271 132.068 42.8634 126.689 42.6098C121.31 42.3561 116.711 47.2085 116.417 53.4479C116.123 59.6873 120.245 64.951 125.624 65.2046C131.002 65.4583 135.601 60.6059 135.896 54.3665Z" fill="#010103"/>
<path d="M332.7 50.7239C332.994 44.4845 328.872 39.2208 323.494 38.9672C318.115 38.7135 313.516 43.5659 313.222 49.8053C312.927 56.0447 317.049 61.3084 322.428 61.5621C327.807 61.8157 332.406 56.9633 332.7 50.7239Z" fill="#010103"/>
<path d="M205.031 90.62C206.161 95.83 206.601 101.18 206.341 106.5" stroke="#010103" stroke-width="6.85" stroke-linecap="round" stroke-linejoin="round"/>
<path d="M253.181 90.62C252.051 95.83 251.611 101.18 251.871 106.5" stroke="#010103" stroke-width="6.85" stroke-linecap="round" stroke-linejoin="round"/>
<path d="M117.441 248.57C114.081 267.61 118.481 287.08 122.871 305.91C130.421 338.34 137.971 370.77 145.511 403.2C127.691 404.38 113.391 423.61 117.381 441.01" stroke="#010103" stroke-width="6.85" stroke-linecap="round" stroke-linejoin="round"/>
<path d="M216.851 291.69C220.791 341.12 222.041 390.77 220.591 440.33" stroke="#010103" stroke-width="6.85" stroke-linecap="round" stroke-linejoin="round"/>
<path d="M341.971 248.57C345.331 267.61 340.931 287.08 336.541 305.91C328.991 338.34 321.441 370.77 313.901 403.2C331.721 404.38 346.021 423.61 342.031 441.01" stroke="#010103" stroke-width="6.85" stroke-linecap="round" stroke-linejoin="round"/>
<path d="M242.551 291.69C238.611 341.12 237.361 390.77 238.811 440.33" stroke="#010103" stroke-width="6.85" stroke-linecap="round" stroke-linejoin="round"/>
<path d="M97.6112 111.99C131.751 132.08 168.871 147.09 207.381 156.37C218.731 159.1 230.331 161.35 241.991 160.79C255.031 160.16 267.631 156.04 279.971 151.76C311.401 140.86 342.391 128.72 372.861 115.38" stroke="#010103" stroke-width="6.85" stroke-linecap="round" stroke-linejoin="round"/>
<path d="M149.471 440.67C150.471 435.49 153.321 430.7 157.391 427.34" stroke="#010103" stroke-width="6.85" stroke-linecap="round" stroke-linejoin="round"/>
<path d="M182.471 440.67C183.471 435.49 186.321 430.7 190.391 427.34" stroke="#010103" stroke-width="6.85" stroke-linecap="round" stroke-linejoin="round"/>
<path d="M307.781 440.67C306.781 435.49 303.931 430.7 299.861 427.34" stroke="#010103" stroke-width="6.85" stroke-linecap="round" stroke-linejoin="round"/>
<path d="M274.781 440.67C273.781 435.49 270.931 430.7 266.861 427.34" stroke="#010103" stroke-width="6.85" stroke-linecap="round" stroke-linejoin="round"/>
</svg>
